<?xml version="1.0" encoding="UTF-8"?>
<svg viewBox="0 0 372.57 611.89" xmlns="http://www.w3.org/2000/svg" xmlns:xlink="http://www.w3.org/1999/xlink">
 <defs>
  <filter id="k" color-interpolation-filters="sRGB">
   <feGaussianBlur stdDeviation="1.882187"/>
  </filter>
  <filter id="j" x="-.13781" y="-.044789" width="1.2756" height="1.0896" color-interpolation-filters="sRGB">
   <feGaussianBlur stdDeviation="0.79176"/>
  </filter>
  <linearGradient id="q" x1=".5" x2=".5" y1=".61922" y2="-.58501" xlink:href="#l"/>
  <linearGradient id="m" x1=".4117" x2=".5" y1=".51421" y2=".16096">
   <stop stop-color="#006533" offset="0"/>
   <stop stop-color="#00583f" offset="1"/>
  </linearGradient>
  <linearGradient id="r" x1=".5" x2=".5" y1="1" y2=".095889">
   <stop stop-color="#2e3436" offset="0"/>
   <stop stop-color="#2e3436" stop-opacity="0" offset="1"/>
  </linearGradient>
  <linearGradient id="n" x1=".5" x2=".5" y1=".76052" y2=".15404">
   <stop stop-color="#2e3436" offset="0"/>
   <stop stop-color="#2e3436" stop-opacity="0" offset="1"/>
  </linearGradient>
  <linearGradient id="o" x1=".5" x2=".5" y1=".38078" y2="1.585" xlink:href="#l"/>
  <linearGradient id="p" x1=".47352" x2=".5" y1=".14378" y2=".90684">
   <stop stop-color="#006e29" offset="0"/>
   <stop stop-color="#00892c" offset="1"/>
  </linearGradient>
  <linearGradient id="l">
   <stop stop-color="#007129" offset="0"/>
   <stop stop-color="#00583f" offset="1"/>
  </linearGradient>
 </defs>
 <path d="m61.143 176h254.29c20.577 0 31.143-18.053 37.143-46.036l20-83.928c0-25.504-16.566-46.036-37.143-46.036h-294.29c-20.577 0-37.143 20.532-37.143 46.036l20 83.928c8 27.363 16.566 46.036 37.143 46.036z" fill="url(#q)"/>
 <path transform="rotate(.081128 188.28 90)" d="m76.464 169.39h223.64c18.097 0 27.389-16.288 32.666-41.534l17.589-75.719c0-23.01-14.569-41.534-32.666-41.534h-258.82c-18.097 0-32.666 18.524-32.666 41.534l17.589 75.719c7.0358 24.687 14.569 41.534 32.666 41.534z" fill="url(#r)" opacity=".25"/>
 <path d="m358.9 289.24l-41.378 291.4c0 14.881-11.98 26.862-26.862 26.862h-212.83c-14.881 0-26.862-11.98-26.862-26.862l-42.74-290.04 350.67-1.362v3.1e-5z" fill="url(#p)"/>
 <g fill="#37a42c">
  <path d="m20.978 290.54l-12.75 0.0312 42.75 290.06c0 11.836 7.5719 21.844 18.156 25.438-2.4143-4.3705-3.8125-9.4116-3.8125-14.781l-44.344-300.75v6.1e-5z"/>
  <path d="m29.019 291.84l-12.75 0.0312 42.75 290.06c0 7.9507 3.0632 17.905 8.5147 22.816 2.6639 2.3997 6.1672 1.442 9.6416 2.6215-2.4143-4.3704-3.8125-9.4116-3.8125-14.781l-44.344-300.75v6.1e-5z" filter="url(#k)"/>
  <path d="m340.42 293.96l12.75 0.0312-42.75 290.06c0 8.6727-4.0655 16.364-10.403 21.27-2.3113 1.7891-4.2178 1.0863-7.0465 2.0465 2.4144-4.3704 3.1054-7.2903 3.1054-12.66l44.344-300.75v6.1e-5z" filter="url(#k)"/>
  <path d="m348.11 290.54l12.75 0.0312-42.75 290.06c0 11.836-7.5719 21.844-18.156 25.438 2.4143-4.3705 3.8125-9.4116 3.8125-14.781l44.344-300.75v6.1e-5z"/>
 </g>
 <path d="m1.0893 282.9l10.375 70.406c6.7593 7.2021 16.385 11.688 27.094 11.688h294.31c9.9557 0 18.974-3.8856 25.625-10.219l9.0312-63.531c-5.3515 13.922-18.805 23.75-34.656 23.75h-294.31c-18.866 0-34.335-13.918-36.781-32.094h-0.6875z" fill="#00892c"/>
 <path d="m57.143 176h254.29c20.577 0 31.143 14.566 37.143 37.143l20 67.714c0 20.577-16.566 37.143-37.143 37.143h-294.29c-20.577 0-37.143-16.566-37.143-37.143l20-67.714c8-22.077 16.566-37.143 37.143-37.143z" fill="url(#o)"/>
 <path d="m12.375 314.02l8.4063 56.969c5.6076 3.3926 12.189 5.3438 19.25 5.3438h294.31c5.2941 0 10.326-1.1125 14.875-3.0938l7.7188-54.562c-6.2503 4.7925-14.07 7.6562-22.594 7.6562h-294.31c-11.016 0-20.873-4.7451-27.656-12.312z" fill="#2e3436" opacity=".179"/>
 <path d="m57.652 177.99c-20.577 0-29.156 15.079-37.156 37.156l-20 67.719c0 20.577 16.579 37.125 37.156 37.125h294.28c20.577 0 37.125-16.548 37.125-37.125l-20-67.719c-6-22.577-16.548-37.156-37.125-37.156h-254.28zm6.375 2.5h243.53c19.708 0 29.816 13.757 35.562 35.062l19.156 63.906c0 19.418-15.855 35.031-35.562 35.031h-281.84c-19.708 0-35.594-15.613-35.594-35.031l19.156-63.906c7.662-20.833 15.886-35.062 35.594-35.062z" fill="#37a52c"/>
 <path d="m308.64 154.05l-261.59-138.05c-3.4178-1.7744-7.3373 0.16241-8.788 4.3426-1.4508 4.1802 0.13277 8.974 3.5506 10.748l261.59 138.05c3.4178 1.7744 7.3372-0.1624 8.788-4.3427 1.4508-4.1802-0.13281-8.974-3.5506-10.748z" fill="url(#m)"/>
 <path d="m43.335 14.632c-2.6122-0.008193-5.0904 1.9027-6.1785 5.0378-0.09964 0.28697-0.17297 0.56229-0.24435 0.85387 1.8588-1.8114 4.4571-2.3299 6.8068-1.11l261.59 138.03c3.1699 1.6457 4.7479 5.9204 3.8048 9.8622 0.82797-0.81886 1.5081-1.915 1.9548-3.202 1.4507-4.1802-0.10782-8.9844-3.5256-10.759l-261.59-138.03c-0.85445-0.44361-1.7473-0.68047-2.618-0.6831z" fill="#2e3436" opacity=".389"/>
 <g transform="rotate(179.36 200.73 88.252) matrix(1.169 0 0 -1.2919 -24.622 743.73)">
  <path d="m312.22 551.07l-234.19-101.05c-3.0598-1.2988-6.5686 0.11887-7.8674 3.1786-1.2988 3.0598 0.11887 6.5686 3.1786 7.8674l234.19 101.05c3.0598 1.2988 6.5686-0.11884 7.8674-3.1786s-0.1189-6.5686-3.1786-7.8674z" fill="url(#m)"/>
  <path d="m71.574 458.62c-1.5827-1.7216-2.048-4.3027-1.012-6.5702 0.094803-0.20761 0.1992-0.39203 0.31355-0.58325 0.1447 2.1227 1.4345 4.0954 3.5131 5.045l232.61 104.62c2.8041 1.2811 6.0664 0.21185 7.6256-2.3585 0.058014 0.95154-0.12311 1.9423-0.54837 2.8731-1.3813 3.0234-4.9178 4.3671-7.9412 2.9858l-232.61-104.62c-0.75586-0.34531-1.4232-0.81808-1.9508-1.392z" fill="#2e3436" opacity=".389"/>
 </g>
 <path d="m34.882 312.83c-9.2018-2.9784-16.709-8.7598-20.74-15.972-2.3966-4.2879-4.7158-11.761-4.7158-15.196 0-3.4583 18.785-65.742 22.308-73.962 1.489-3.4748 3.7672-8.132 5.0628-10.349 2.7296-4.6716 9.0225-11.761 9.7795-11.018 0.47365 0.46518 13.004 121.44 13.039 125.89l0.0154 1.9446-10.43-0.038c-7.992-0.029114-11.339-0.33228-14.319-1.2969z" fill="url(#n)" opacity=".25"/>
 <path d="m335.4 312.13c9.2018-2.9784 16.709-8.7598 20.74-15.972 2.3966-4.2879 4.7158-11.761 4.7158-15.196 0-3.4583-18.785-65.742-22.308-73.962-1.489-3.4748-3.7672-8.132-5.0628-10.349-2.7296-4.6716-9.0225-11.761-9.7795-11.018-0.47363 0.46518-13.004 121.44-13.039 125.89l-0.0154 1.9446 10.43-0.038c7.992-0.029114 11.339-0.33228 14.319-1.2969z" fill="url(#n)" opacity=".25"/>
 <path d="m1.0893 282.9l10.375 70.406c6.7593 7.2021 16.385 11.688 27.094 11.688h294.31c9.9557 0 18.974-3.8856 25.625-10.219l9.0312-63.531c-5.3515 13.922-18.805 23.75-34.656 23.75h-294.31c-18.866 0-34.335-13.918-36.781-32.094h-0.6875z" fill="#00892c"/>
 <g transform="matrix(2.0745 0 0 2.1287 76.455 -150.89)" fill="#d8e8c2">
  <path d="m34.48 251.27l-18 31.188 22 12.687 14-24.25 4.875 8.625-5.8125 3.375 22.375-0.25 7.4375-12.562 3.9375-6.6876-5.875 3.375-8.9375-15.5h-36zm54 31.188l-22.188 12.812 13.5 23.75-9.1875 0.0626v-6.5l-3.625 6.5-7.375 13v0.062439l7.1875 12.688 3.8125 6.75v-6.75h17.875l18-31.188-18-31.187v-3.1e-5zm-86.938 12.25l5.9375 3.4374-9 15.5 18 31.188h36v-25.625l-28 0.1874 4.9375-8.5624 5.875 3.375-11.375-19.25-22.375-0.25z"/>
 </g>
 <g fill="#2f9d2b">
  <path d="m5.4684 293.44s8.1317 15.556 22.981 19.445l3.182 49.498c-14.142 1.0607-19.446-8.8388-19.446-8.8388l-6.7175-60.104z" filter="url(#j)"/>
  <path d="m366.63 293.44s-8.1317 15.556-22.981 19.445l-3.182 49.498c14.142 1.0607 19.445-8.8388 19.445-8.8388l6.7175-60.104z" filter="url(#j)"/>
 </g>
</svg>
