<?xml version="1.0" encoding="UTF-8"?>
<svg viewBox="0 0 673.325 728.7875" xmlns="http://www.w3.org/2000/svg">
 <g transform="matrix(1.25 0 0 -1.25 0 728.79)">
  <g transform="scale(.24)">
   <path d="m55.012 9.5703-35.699 124.5-13.801 50.102h38.703c16.5-70.801 26.098-113.4 28.195-127.8h0.3046c1.4961 8.3984 3.2969 18.301 5.3985 29.098 1.8008 11.102 3.3008 20.402 4.7969 28.203 1.8046 7.801 4.2031 19.199 7.2031 34.797 3 15.301 5.3984 27.301 7.1992 35.703h38.7c14.101-66 22.5-108.9 25.801-127.8h0.601c1.496 9.6016 3.602 18.902 5.399 27.898 2.101 8.7032 4.199 18.602 6.597 28.8 2.106 10.2 5.102 21 7.801 33.301 3.004 12 5.703 24.602 8.699 37.801h37.203l-34.5-124.5-14.398-50.102h-35.402c-4.5 21.602-7.801 37.5-9.899 47.098-1.801 9.9062-4.199 20.402-6.301 32.102-2.398 11.704-4.8 21.602-6 30.898-1.8 9.004-3.601 18.004-5.101 26.402h-0.297c-1.203-8.097-2.402-16.199-4.199-23.699-1.203-7.801-3.004-17.101-5.102-27.902-2.699-11.395-5.101-22.496-7.1992-33.598-2.4023-11.098-6-28.199-10.805-51.301h-33.898zm168.9 0 61.801 174.6h42.297l61.203-174.6h-39.602l-10.8 36.004h-64.2l-12.3-36.004h-38.399zm82.199 135.3-21.902-70.801h44.102l-21.899 70.801h-0.301zm98.102-82.801h35.098c0.3-6.3047 2.101-11.703 5.101-15.902 3.301-4.1992 7.5-7.1992 12.301-9.3008 5.398-1.8008 10.797-3 17.098-3 25.5 0 38.402 7.2031 38.699 21.602 0 4.7968-1.5 8.6992-4.199 11.398-2.403 3.0039-5.7 5.1016-9 6-3.598 1.5-9.899 3.3008-18.598 5.4023-7.203 2.0977-12.602 3.5977-16.805 3.8946-11.695 2.4023-21.898 5.1054-29.996 8.7031s-14.699 9-19.5 16.199c-5.101 6.903-7.5 16.5-7.5 27.903 0.297 10.5 3.301 20.097 8.098 28.199 5.101 8.101 12.902 14.098 22.801 18.598 9.902 4.199 21.601 6.3 35.402 6.3 12.898 0 24-1.8 33-4.797 8.699-3.601 16.199-8.101 21.297-13.804s9.301-11.696 11.398-18.297c2.403-6.297 3.903-12.902 4.203-19.504h-35.398c-1.5 17.406-13.801 25.805-36.602 25.805-8.398 0-15.3-1.801-21-4.805-6-3.297-8.699-8.098-9.601-14.996 0-9.301 5.101-15.301 14.101-18.004 9.297-2.098 17.098-4.199 24.899-5.996 8.101-2.098 13.801-3.602 17.101-4.5 13.2-3 23.098-6.301 30.301-9.8986 7.5-3.6015 12.598-8.4023 16.199-14.703 3.899-5.9961 5.7-14.098 5.7-24 0-11.699-3-21.598-8.102-29.699-5.695-7.8008-11.996-13.801-19.797-17.699-7.801-3.6016-15.004-6.0039-21.902-6.9024-7.199-1.4961-13.199-2.0976-17.699-2.0976-50.098 0.60156-75.899 19.496-77.098 57.902zm210-52.504v144.6h-53.703v30h141.9v-30h-51.902v-144.6h-36.297zm111 0v174.6h129.3v-30h-93v-38.399h85.199v-30.601h-85.199v-45.602h96.902v-30h-133.2zm371.7 0h-76.8v174.6h78c15.91 0 29.4-3.902 39.9-11.102 10.5-7.5 18.01-17.699 22.81-29.699 4.5-11.703 7.19-25.199 7.49-39.598 0-16.203-2.4-31.203-7.19-45.601-4.5-14.402-12.31-25.797-22.81-35.102-10.8-9-24.29-13.5-41.4-13.5zm-40.8 28.203h36.3c13.5 0 23.7 5.9961 30 17.996s9.61 26.398 9.61 43.504c-0.31 10.797-1.81 20.098-3.91 28.196-2.1 7.504-5.7 14.402-11.4 19.203-5.7 4.5-13.8 7.5-24.3 7.5h-36.3v-116.4zm135.91-28.203v174.6h36.29v-174.6h-36.29zm61.8 52.504h35.09c0.3-6.3047 2.11-11.703 5.4-15.902 3.01-4.1992 7.21-7.1992 12.31-9.3008 5.09-1.8008 10.79-3 17.09-3 25.2 0 38.4 7.2031 38.7 21.602 0 4.7968-1.5 8.6992-4.2 11.398-2.7 3.0039-5.69 5.1016-9.3 6-3.3 1.5-9.59 3.3008-18.6 5.4023-6.9 2.0977-12.6 3.5977-16.8 3.8946-11.69 2.4023-21.6 5.1054-29.7 8.7031s-14.69 9-19.79 16.199c-4.81 6.903-7.21 16.5-7.21 27.903 0.3 10.5 3.01 20.097 7.81 28.199 5.39 8.101 13.2 14.098 23.09 18.598 9.61 4.199 21.6 6.3 35.4 6.3 12.9 0 23.7-1.8 33-4.797 8.7-3.601 15.9-8.101 21.31-13.804 4.79-5.699 8.99-11.696 11.09-18.297 2.7-6.297 3.9-12.902 4.5-19.504h-35.69c-1.21 17.406-13.5 25.805-36.31 25.805-8.4 0-15.6-1.801-21.3-4.805-5.7-3.297-8.69-8.098-9.3-14.996 0-9.301 4.8-15.301 14.11-18.004 8.99-2.098 17.09-4.199 24.89-5.996 8.11-2.098 13.5-3.602 17.11-4.5 12.89-3 22.79-6.301 30.3-9.8986 7.2-3.6015 12.59-8.4023 16.19-14.703 3.6-5.9961 5.4-14.098 5.4-24 0-11.699-2.7-21.598-8.09-29.699-5.41-7.8008-11.71-13.801-19.5-17.699-7.81-3.6016-15.31-6.0039-22.2-6.9024-6.91-1.4961-12.91-2.0976-17.41-2.0976-50.4 0.60156-75.9 19.496-77.39 57.902zm172.49-52.504v174.6h79.8c9 0 16.21-1.5 22.8-4.199 6.91-2.403 12.3-6.602 17.1-11.703 4.5-4.797 7.51-10.497 10.2-17.098 2.11-6.602 3-13.5 3-21 0-16.5-4.2-29.699-12.6-40.5-8.1-10.5-22.2-15.598-41.7-15.598h-42.6v-64.504h-36zm36 93h34.21c7.49 0 13.49 1.203 17.39 3.602 3.9 2.101 6.3 5.402 7.5 8.996 1.21 3.301 1.8 8.102 1.8 12.902 0 8.403-1.8 15-5.7 19.2s-12.3 6.902-25.2 6.902h-30v-51.602zm119.1-15.898v6.3008c0 18.898 3 35.398 8.7 49.5 6 14.097 15 25.199 27.6 33 12.91 8.097 28.81 12.3 48.61 12.597 10.5 0 20.99-1.8 30.89-5.398 9.9-3.301 18.6-9.004 26.41-16.5 7.49-7.199 13.79-17.098 18.59-29.098 4.5-11.703 6.6-25.804 6.6-42.301 0-14.102-2.1-27.004-6-38.402-3.9-11.098-9.9-20.699-17.1-28.801-7.5-8.1015-16.2-13.801-26.39-17.699-10.51-3.6016-21.91-5.6992-34.51-5.6992-16.79 0-31.2 3.9023-43.8 10.5-12.3 7.5-21.9 17.098-28.5 29.699-6.6 12.902-10.49 26.699-11.1 42.301zm36 14.098c0-19.5 3.9-35.098 11.41-47.7 7.19-12.297 19.5-18.598 36.29-19.199 11.1 0 20.41 3.3008 27.6 9.3008 6.9 6 12.3 13.496 15.31 22.5 3.29 9 4.5 18.301 4.5 27.301 0 15.898-3.01 30.597-9 44.101-6.31 13.496-19.21 20.399-39.31 20.399-7.19 0-14.1-1.801-21-5.102-6.9-3.902-12.59-9.898-17.7-18.598-4.5-8.402-7.2-19.8-8.1-33.003zm151.5-38.696h34.8c0.6-6.3047 2.4-11.703 5.4-15.902 3.3-4.1992 7.5-7.1992 12.3-9.3008 5.41-1.8008 10.8-3 17.1-3 25.51 0 38.4 7.2031 38.7 21.602 0 4.7968-1.5 8.6992-4.19 11.398-2.41 3.0039-5.71 5.1016-9 6-3.6 1.5-9.91 3.3008-18.61 5.4023-7.2 2.0977-12.9 3.5977-17.1 3.8946-11.4 2.4023-21.6 5.1054-29.69 8.7031-8.11 3.5977-14.71 9-19.8 16.199-4.8 6.903-7.21 16.5-7.21 27.903 0.3 10.5 3 20.097 8.1 28.199 5.11 8.101 12.9 14.098 22.81 18.598 9.89 4.199 21.59 6.3 35.39 6.3 12.9 0 24-1.8 33-4.797 8.7-3.601 16.2-8.101 21.3-13.804 5.11-5.699 9.31-11.696 11.4-18.297 2.41-6.297 3.9-12.902 4.2-19.504h-35.4c-1.5 17.406-13.8 25.805-36.59 25.805-8.4 0-15.61-1.801-21.01-4.805-6-3.297-8.7-8.098-9.6-14.996 0-9.301 5.1-15.301 14.1-18.004 9-2.098 17.1-4.199 24.9-5.996 8.1-2.098 13.81-3.602 17.1-4.5 13.2-3 22.8-6.301 30.3-9.8986s12.6-8.4023 16.2-14.703c3.9-5.9961 5.7-14.098 5.7-24 0-11.699-2.99-21.598-8.1-29.699-5.7-7.8008-11.99-13.801-19.8-17.699-7.79-3.6016-15-6.0039-22.2-6.9024-6.9-1.4961-12.9-2.0976-17.4-2.0976-50.1 0.60156-75.9 19.496-77.1 57.902zm158.7-52.504 61.8 174.6h42.3l61.5-174.6h-39.9l-10.8 36.004h-64.2l-12.29-36.004h-38.41zm82.21 135.3-21.91-70.801h44.11l-21.9 70.801h-0.3zm107.39-135.3v174.6h36.31v-142.5h86.69v-32.102h-123" fill="#231f20"/>
   <path d="m55.012 9.5703-35.699 124.5-13.801 50.102h38.703c16.5-70.801 26.098-113.4 28.195-127.8h0.3046c1.4961 8.3984 3.2969 18.301 5.3985 29.098 1.8008 11.102 3.3008 20.402 4.7969 28.203 1.8046 7.801 4.2031 19.199 7.2031 34.797 3 15.301 5.3984 27.301 7.1992 35.703h38.7c14.101-66 22.5-108.9 25.801-127.8h0.601c1.496 9.6016 3.602 18.902 5.399 27.898 2.101 8.7032 4.199 18.602 6.597 28.8 2.106 10.2 5.102 21 7.801 33.301 3.004 12 5.703 24.602 8.699 37.801h37.203l-34.5-124.5-14.398-50.102h-35.402c-4.5 21.602-7.801 37.5-9.899 47.098-1.801 9.9062-4.199 20.402-6.301 32.102-2.398 11.704-4.8 21.602-6 30.898-1.8 9.004-3.601 18.004-5.101 26.402h-0.297c-1.203-8.097-2.402-16.199-4.199-23.699-1.203-7.801-3.004-17.101-5.102-27.902-2.699-11.395-5.101-22.496-7.1992-33.598-2.4023-11.098-6-28.199-10.805-51.301h-33.898zm168.9 0 61.801 174.6h42.297l61.203-174.6h-39.602l-10.8 36.004h-64.2l-12.3-36.004h-38.399zm82.199 135.3-21.902-70.801h44.102l-21.899 70.801h-0.301zm98.102-82.801h35.098c0.3-6.3047 2.101-11.703 5.101-15.902 3.301-4.1992 7.5-7.1992 12.301-9.3008 5.398-1.8008 10.797-3 17.098-3 25.5 0 38.402 7.2031 38.699 21.602 0 4.7968-1.5 8.6992-4.199 11.398-2.403 3.0039-5.7 5.1016-9 6-3.598 1.5-9.899 3.3008-18.598 5.4023-7.203 2.0977-12.602 3.5977-16.805 3.8946-11.695 2.4023-21.898 5.1054-29.996 8.7031s-14.699 9-19.5 16.199c-5.101 6.903-7.5 16.5-7.5 27.903 0.297 10.5 3.301 20.097 8.098 28.199 5.101 8.101 12.902 14.098 22.801 18.598 9.902 4.199 21.601 6.3 35.402 6.3 12.898 0 24-1.8 33-4.797 8.699-3.601 16.199-8.101 21.297-13.804s9.301-11.696 11.398-18.297c2.403-6.297 3.903-12.902 4.203-19.504h-35.398c-1.5 17.406-13.801 25.805-36.602 25.805-8.398 0-15.3-1.801-21-4.805-6-3.297-8.699-8.098-9.601-14.996 0-9.301 5.101-15.301 14.101-18.004 9.297-2.098 17.098-4.199 24.899-5.996 8.101-2.098 13.801-3.602 17.101-4.5 13.2-3 23.098-6.301 30.301-9.8986 7.5-3.6015 12.598-8.4023 16.199-14.703 3.899-5.9961 5.7-14.098 5.7-24 0-11.699-3-21.598-8.102-29.699-5.695-7.8008-11.996-13.801-19.797-17.699-7.801-3.6016-15.004-6.0039-21.902-6.9024-7.199-1.4961-13.199-2.0976-17.699-2.0976-50.098 0.60156-75.899 19.496-77.098 57.902zm210-52.504v144.6h-53.703v30h141.9v-30h-51.902v-144.6h-36.297zm111 0v174.6h129.3v-30h-93v-38.399h85.199v-30.601h-85.199v-45.602h96.902v-30h-133.2zm371.7 0h-76.8v174.6h78c15.91 0 29.4-3.902 39.9-11.102 10.5-7.5 18.01-17.699 22.81-29.699 4.5-11.703 7.19-25.199 7.49-39.598 0-16.203-2.4-31.203-7.19-45.601-4.5-14.402-12.31-25.797-22.81-35.102-10.8-9-24.29-13.5-41.4-13.5zm-40.8 28.203h36.3c13.5 0 23.7 5.9961 30 17.996s9.61 26.398 9.61 43.504c-0.31 10.797-1.81 20.098-3.91 28.196-2.1 7.504-5.7 14.402-11.4 19.203-5.7 4.5-13.8 7.5-24.3 7.5h-36.3v-116.4zm135.91-28.203v174.6h36.29v-174.6h-36.29zm61.8 52.504h35.09c0.3-6.3047 2.11-11.703 5.4-15.902 3.01-4.1992 7.21-7.1992 12.31-9.3008 5.09-1.8008 10.79-3 17.09-3 25.2 0 38.4 7.2031 38.7 21.602 0 4.7968-1.5 8.6992-4.2 11.398-2.7 3.0039-5.69 5.1016-9.3 6-3.3 1.5-9.59 3.3008-18.6 5.4023-6.9 2.0977-12.6 3.5977-16.8 3.8946-11.69 2.4023-21.6 5.1054-29.7 8.7031s-14.69 9-19.79 16.199c-4.81 6.903-7.21 16.5-7.21 27.903 0.3 10.5 3.01 20.097 7.81 28.199 5.39 8.101 13.2 14.098 23.09 18.598 9.61 4.199 21.6 6.3 35.4 6.3 12.9 0 23.7-1.8 33-4.797 8.7-3.601 15.9-8.101 21.31-13.804 4.79-5.699 8.99-11.696 11.09-18.297 2.7-6.297 3.9-12.902 4.5-19.504h-35.69c-1.21 17.406-13.5 25.805-36.31 25.805-8.4 0-15.6-1.801-21.3-4.805-5.7-3.297-8.69-8.098-9.3-14.996 0-9.301 4.8-15.301 14.11-18.004 8.99-2.098 17.09-4.199 24.89-5.996 8.11-2.098 13.5-3.602 17.11-4.5 12.89-3 22.79-6.301 30.3-9.8986 7.2-3.6015 12.59-8.4023 16.19-14.703 3.6-5.9961 5.4-14.098 5.4-24 0-11.699-2.7-21.598-8.09-29.699-5.41-7.8008-11.71-13.801-19.5-17.699-7.81-3.6016-15.31-6.0039-22.2-6.9024-6.91-1.4961-12.91-2.0976-17.41-2.0976-50.4 0.60156-75.9 19.496-77.39 57.902zm172.49-52.504v174.6h79.8c9 0 16.21-1.5 22.8-4.199 6.91-2.403 12.3-6.602 17.1-11.703 4.5-4.797 7.51-10.497 10.2-17.098 2.11-6.602 3-13.5 3-21 0-16.5-4.2-29.699-12.6-40.5-8.1-10.5-22.2-15.598-41.7-15.598h-42.6v-64.504h-36zm36 93h34.21c7.49 0 13.49 1.203 17.39 3.602 3.9 2.101 6.3 5.402 7.5 8.996 1.21 3.301 1.8 8.102 1.8 12.902 0 8.403-1.8 15-5.7 19.2s-12.3 6.902-25.2 6.902h-30v-51.602zm119.1-15.898v6.3008c0 18.898 3 35.398 8.7 49.5 6 14.097 15 25.199 27.6 33 12.91 8.097 28.81 12.3 48.61 12.597 10.5 0 20.99-1.8 30.89-5.398 9.9-3.301 18.6-9.004 26.41-16.5 7.49-7.199 13.79-17.098 18.59-29.098 4.5-11.703 6.6-25.804 6.6-42.301 0-14.102-2.1-27.004-6-38.402-3.9-11.098-9.9-20.699-17.1-28.801-7.5-8.1015-16.2-13.801-26.39-17.699-10.51-3.6016-21.91-5.6992-34.51-5.6992-16.79 0-31.2 3.9023-43.8 10.5-12.3 7.5-21.9 17.098-28.5 29.699-6.6 12.902-10.49 26.699-11.1 42.301zm36 14.098c0-19.5 3.9-35.098 11.41-47.7 7.19-12.297 19.5-18.598 36.29-19.199 11.1 0 20.41 3.3008 27.6 9.3008 6.9 6 12.3 13.496 15.31 22.5 3.29 9 4.5 18.301 4.5 27.301 0 15.898-3.01 30.597-9 44.101-6.31 13.496-19.21 20.399-39.31 20.399-7.19 0-14.1-1.801-21-5.102-6.9-3.902-12.59-9.898-17.7-18.598-4.5-8.402-7.2-19.8-8.1-33.003zm151.5-38.696h34.8c0.6-6.3047 2.4-11.703 5.4-15.902 3.3-4.1992 7.5-7.1992 12.3-9.3008 5.41-1.8008 10.8-3 17.1-3 25.51 0 38.4 7.2031 38.7 21.602 0 4.7968-1.5 8.6992-4.19 11.398-2.41 3.0039-5.71 5.1016-9 6-3.6 1.5-9.91 3.3008-18.61 5.4023-7.2 2.0977-12.9 3.5977-17.1 3.8946-11.4 2.4023-21.6 5.1054-29.69 8.7031-8.11 3.5977-14.71 9-19.8 16.199-4.8 6.903-7.21 16.5-7.21 27.903 0.3 10.5 3 20.097 8.1 28.199 5.11 8.101 12.9 14.098 22.81 18.598 9.89 4.199 21.59 6.3 35.39 6.3 12.9 0 24-1.8 33-4.797 8.7-3.601 16.2-8.101 21.3-13.804 5.11-5.699 9.31-11.696 11.4-18.297 2.41-6.297 3.9-12.902 4.2-19.504h-35.4c-1.5 17.406-13.8 25.805-36.59 25.805-8.4 0-15.61-1.801-21.01-4.805-6-3.297-8.7-8.098-9.6-14.996 0-9.301 5.1-15.301 14.1-18.004 9-2.098 17.1-4.199 24.9-5.996 8.1-2.098 13.81-3.602 17.1-4.5 13.2-3 22.8-6.301 30.3-9.8986s12.6-8.4023 16.2-14.703c3.9-5.9961 5.7-14.098 5.7-24 0-11.699-2.99-21.598-8.1-29.699-5.7-7.8008-11.99-13.801-19.8-17.699-7.79-3.6016-15-6.0039-22.2-6.9024-6.9-1.4961-12.9-2.0976-17.4-2.0976-50.1 0.60156-75.9 19.496-77.1 57.902zm158.7-52.504 61.8 174.6h42.3l61.5-174.6h-39.9l-10.8 36.004h-64.2l-12.29-36.004h-38.41zm82.21 135.3-21.91-70.801h44.11l-21.9 70.801h-0.3zm107.39-135.3v174.6h36.31v-142.5h86.69v-32.102h-123z" fill="none" stroke="#231f20" stroke-miterlimit="2.6131" stroke-width="8.4"/>
   <path d="m1946.5 2016.9c340.79-452.4 248.69-1106.1-204.91-1447.8-451.2-340.2-1104.9-248.7-1446 203.7-341.1 452.7-249 1106.4 202.2 1446.3 453.6 342 1107.6 250.5 1448.7-202.2" fill="#fff"/>
   <path d="m1946.5 2016.9c340.79-452.4 248.69-1106.1-204.91-1447.8-451.2-340.2-1104.9-248.7-1446 203.7-341.1 452.7-249 1106.4 202.2 1446.3 453.6 342 1107.6 250.5 1448.7-202.2z" fill="none" stroke="#231f20" stroke-linecap="round" stroke-linejoin="round" stroke-miterlimit="2.6131" stroke-width="8.4"/>
   <path d="m1527.1 1788.3-219.01-927.9h-368.4l-262.2 939-101.1-0.6 274.5-1022.4 540.3-0.598 248.11 1012.5h-112.2zm-278.71-49.8 150.3 31.8-45.3-78.6-197.39-50.1-57.61 192.6 47.41 81.9 44.39-144 142.2 246.3 58.21-33.6-142.21-246.3zm528.3 150.9c270.91-360 197.7-879.6-162.9-1151.4-358.5-270-878.1-197.4-1149 162.6-270.9 359.7-198 879.6 160.5 1149.6 360.6 271.8 880.5 198.9 1151.4-160.8" fill="#231f20"/>
   <path d="m1527.1 1788.3-219.01-927.9h-368.4l-262.2 939-101.1-0.6 274.5-1022.4 540.3-0.598 248.11 1012.5h-112.2zm-278.71-49.8 150.3 31.8-45.3-78.6-197.39-50.1-57.61 192.6 47.41 81.9 44.39-144 142.2 246.3 58.21-33.6-142.21-246.3zm528.3 150.9c270.91-360 197.7-879.6-162.9-1151.4-358.5-270-878.1-197.4-1149 162.6-270.9 359.7-198 879.6 160.5 1149.6 360.6 271.8 880.5 198.9 1151.4-160.8z" fill="none" stroke="#fff" stroke-linecap="round" stroke-linejoin="round" stroke-miterlimit="2.6131" stroke-width="8.4"/>
  </g>
 </g>
</svg>
