<?xml version="1.0" encoding="UTF-8"?>
<svg viewBox="0 0 249.819 233.265" xmlns="http://www.w3.org/2000/svg">
 <path d="m112.064,37.066c.828.864 1.404,1.728 1.872,2.592 .468.756.684,1.224.792,2.52-.072,1.26-.324,3.708-.36,5.112-.036,1.296-.216,2.232.432,2.808 .54.576 2.268.792 3.24.648 1.008-.252 2.052-1.008 2.592-1.98 .432-1.224.432-2.7 0-4.284-.468-1.584-1.296-3.384-2.484-4.572-1.224-1.188-2.808-1.98-4.752-2.376-.432-.144-.864-.288-1.332-.468z" fill="#80ffff" fill-rule="evenodd"/>
 <path d="m247.533,85.09c-5.365-2.7-10.152-4.572-14.904-5.616-4.68-1.152 4.248-.036-13.068-.684-17.713-.684-71.568-3.168-91.045-3.168-19.403-.144-13.607,2.196-24.119,2.736-10.584.396-29.052-.36-38.304.216-9.288.684-11.556,1.836-16.92,3.6-5.436,1.62-11.88,4.248-15.3,6.084-3.42,1.692-3.672,3.168-5.184,4.284-1.656,1.08-1.836.936-4.284,2.484-2.484,1.512-7.416,4.608-10.368,6.516-2.952,1.728-5.364,3.06-7.236,4.284-1.98,1.224-3.348,1.836-4.248,2.952-.972,1.044-1.404,1.44-1.584,3.132-.324,1.692-.18,4.5 0,6.768 .18,2.16.504,4.14 1.116,6.084l6.984,1.152c1.692,10.188 3.06,18.468 3.816,24.983 .648,6.408.9,6.229.9,13.752-.036,7.524-.288,17.677-.9,30.889-.612.899 1.728,2.304 7.452,4.067 5.58,1.729 10.44,3.996 26.388,6.517 16.092,2.556 49.32,6.731 68.724,8.352 19.188,1.44 34.165,1.584 45.757.432 3.096-1.044 7.775-2.592 14.184-5.184 6.443-2.556 17.207-6.876 24.119-9.9 6.84-3.132 11.16-4.571 16.705-8.352 5.4-3.888 10.656-8.388 15.768-14.184 .9.144 1.801-1.692 2.699-5.652 .9-4.104 1.801-11.16 2.701-18.252 .828-7.309 1.943-16.92 2.232-24.12 .143-7.056-.182-13.14-1.117-18.252l9.252-5.616c.793-3.888 1.117-7.452 1.117-10.836-.073-3.456-.47-6.48-1.333-9.468z" fill="#0080ff" fill-rule="evenodd"/>
 <path d="m42.656,39.586c-.432,3.924-.252,7.56.684,11.052 .864,3.384 1.188,6.48 4.716,9.684 3.528,3.24 8.676,6.3 16.02,9.468 7.704-4.86 14.76-10.08 21.852-15.804 6.984-5.796 13.464-11.772 19.836-18.468-3.996-.36-7.308-1.404-10.368-3.132-3.06-1.8-5.76-4.932-7.668-7.452-1.908-2.592-3.06-5.148-3.6-8.1-.576-3.096-.504-6.264.216-9.936-7.74,5.328-14.796,10.44-21.852,16.02-7.02,5.544-13.5,10.872-19.836,16.668z" fill="#0ff" fill-rule="evenodd"/>
 <path d="m128.984,41.17c1.404,1.62 2.377,3.348 2.916,5.184 .432,1.836 1.008,3.132.217,5.832-.9,2.664-4.393,6.552-4.934,10.152-.504,3.42.324,7.164 1.801,10.836 1.367,3.672 4.717,7.344 6.301,11.016 1.402,3.564 1.908,7.56 2.482,10.62 .504,3.06.9,5.4.9,7.416l4.5-1.8c1.764-2.304 3.133-3.744 4.5-4.716 1.26-.972 1.945-1.224 3.168-.9 1.188.144 3.709,1.188 4.068,2.448 .252,1.332-1.225,3.348-2.484,5.22-1.332,1.728-4.248,3.276-5.436,5.184-1.297,1.764-1.836,4.212-2.016,5.832-.217,1.548 1.008,2.556.9,3.852-.145,1.296-.793,2.52-1.801,3.816 2.916-.072 6.119-.072 9.469,0 3.42.035 7.596.468 10.584.468 2.807-.072 5.039-.252 6.551-.685-.324-2.699-1.08-5.616-2.268-9.036-1.152-3.456-2.951-7.488-4.717-11.268-1.979-3.924-4.211-8.568-6.551-11.7-2.377-3.096-4.645-5.472-7.201-6.984 1.332-.72 2.16-1.944 2.916-3.384 .648-1.476 1.08-3.456 1.152-5.652-.863-2.376-1.943-4.356-3.635-6.084s-3.744-3.204-6.301-4.284c3.133-1.188 5.58-2.268 7.199-3.384s2.449-2.16 2.484-3.132l-2.916-5.652 .9-2.916c-2.053.108-4.213-.612-6.768-2.016-2.592-1.476-5.328-3.78-8.352-6.768-2.516.829-5.071,1.657-7.628,2.485z" fill="#21a161" fill-rule="evenodd"/>
 <path d="m112.749,119.361c1.872-3.132 3.924-5.76 6.3-7.884 2.376-2.16 4.932-3.816 7.668-4.968 2.555-1.188 4.859-1.08 7.883-2.016 2.881-1.008 6.156-2.412 9.686-4.068l3.852,4.752c-1.873,2.304-3.023,4.176-3.6,5.616-.648,1.404.072,1.836.215,2.952 .072,1.08.721,2.232.432,3.6-.395,1.368-1.115,2.664-2.447,4.284-4.535-.145-9.18-.324-14.221-.685-5.113-.394-10.188-.97-15.768-1.583z" fill="#ffc080" fill-rule="evenodd"/>
 <path d="m81.86,100.894c.576,2.88 1.332,5.652 2.268,8.316s2.016,5.22 3.384,7.668l25.92,2.7c1.656-2.665 3.384-5.041 5.184-6.984 1.692-2.088 3.636-3.96 5.4-4.932 1.692-.9 3.349-1.224 4.968-.684-2.557-4.86-4.968-9.396-7.668-13.752-2.772-4.392-6.264-9.792-8.136-12.168-1.836-2.376-2.808-3.06-2.916-2.052 .54,5.112.036,9.324-1.368,12.636-1.512,3.348-4.536,5.328-7.416,7.2-2.88,1.656-7.488,2.736-9.936,3.384-2.556.684-3.636.864-5.184.684-1.692-.216-3.06-.936-4.5-2.016z" fill="#f00" fill-rule="evenodd"/>
 <path d="m89.997,50.386c3.528.72 7.236,1.728 11.268,3.168 4.032,1.332 9.324,3.06 12.816,5.184 3.456,2.088 5.76,4.572 7.452,7.452-.036,2.664-.396,5.436-1.368,8.316-1.008,2.952-2.376,5.832-4.248,9.036l-5.184-4.536c-3.6.288-6.984.72-10.152,1.584-3.204.72-6.084,1.872-8.784,3.168l-9.936-8.784c-.252-2.412 0-5.076.9-8.136 .864-3.24 2.988-7.308 4.284-10.116 1.224-2.736 2.16-4.896 2.952-6.336z" fill="#008000" fill-rule="evenodd"/>
 <path d="m83.229,108.994-2.052,7.452 7.452,1.116c-.612-.864-1.368-1.944-2.268-3.384-.901-1.512-1.944-3.096-3.132-5.184z" fill="#008000" fill-rule="evenodd"/>
 <path d="m91.329,83.074c-3.996,2.628-6.732,5.328-8.352,8.1-1.656,2.772-1.98,6.48-1.548,8.352 .324,1.8 2.052,1.98 3.816,2.484 1.692.396 3.276.936 6.552.216 3.312-.72 9.936-1.944 13.068-4.5 2.952-2.7 4.104-8.172 4.968-11.268 .864-3.132.936-5.616.216-7.452-4.788.684-8.604,1.368-11.736,2.052-3.097.72-5.473,1.26-6.984,2.016z" fill="#c0c0c0" fill-rule="evenodd"/>
 <path d="m144.969,99.31c-.9.972-.973,1.944-.217,2.916 .684.972 2.232,1.944 4.5,2.916l5.4-5.616c-.721-1.908-1.439-3.312-2.447-4.068-1.045-.828-2.125-1.044-3.385-.648-1.259,1.476-2.556,2.988-3.851,4.5z" fill="#a16121" fill-rule="evenodd"/>
 <path d="m125.132,37.786 5.401,3.384 6.768-5.184-.684-3.168c-.9-1.008-1.584-1.728-2.449-2.016-.828-.396-1.656-.396-2.484,0-.936.36-1.871,1.296-2.951,2.232-1.115.9-3.06,1.8-3.6,2.7-.612.792-.612,1.476-.001,2.052z" fill="#a16121" fill-rule="evenodd"/>
 <path d="m177.656,32.134c-3.492-.324-7.127.252-11.053,2.268-4.066,1.98-9.936,6.444-12.6,9.216-2.699,2.628-3.779,4.644-3.383,6.336l2.699,6.084c-1.871,1.404-3.527,2.556-4.969,3.6-1.475.972-2.627,1.8-3.6,2.484 3.061,2.952 5.293,5.292 6.984,7.416 1.584,2.016 2.484,3.6 2.699,4.752-.756,1.656-1.547,3.204-2.23,4.5-.756,1.332-1.441,2.412-2.053,3.384 2.16,2.196 4.141,4.5 6.084,6.768 1.873,2.196 3.6,4.428 5.184,6.984 1.549,2.592 2.809,5.364 4.068,8.316 1.188,2.88 2.195,6.012 3.168,8.82 .828,2.7 1.549,5.004 2.016,7.2 .072.972 1.369,1.044 4.033.216 2.627-.828 7.164-3.204 11.52-5.184 4.248-2.268 9.684-4.716 13.969-7.2 4.211-2.484 7.99-5.076 11.051-7.2 2.881-2.16 4.932-3.924 6.301-5.436-.684-2.664-.828-5.472-.432-8.568 .287-3.168 1.367-6.444 2.699-10.116 1.367-3.78 2.988-8.136 5.4-11.952 2.34-3.744 5.148-7.272 8.568-10.584-.576-2.484-1.404-4.644-2.484-6.768-1.152-2.124-2.412-4.032-4.068-5.868l2.484-12.168c-.721.54-1.945,1.26-3.385,2.016-1.512.756-3.383,1.584-5.615,2.484l3.131-14.184-10.799,4.5c.18-2.952.684-6.012 1.115-9.468 .541-3.492 1.008-7.128 1.801-11.052-6.121-1.512-11.125-2.412-15.553-2.7-4.393-.324-7.271.108-10.584.9-3.42.756-6.084,1.908-9.252,3.6-3.168,1.62-6.229,3.6-9.469,6.084 1.441,2.916 2.773,5.976 3.854,9.468 1.117,3.456 2.018,7.092 2.701,11.052z" fill="#c0c0c0" fill-rule="evenodd"/>
 <path d="m41.972,111.01c.756.252 4.392.9 11.052,1.8 6.66.864 16.056,2.124 28.62,3.636l2.016-8.136-2.232-9.252c-.288-1.188-.072-2.736.648-4.5 .756-1.836 1.872-4.536 3.636-6.3 1.656-1.8 3.708-3.348 6.3-4.5-3.78-4.5-8.064-7.956-13.284-10.368-5.22-2.52-10.944-3.852-17.604-4.284-2.772,3.888-5.544,8.388-8.316,13.5-2.808,5.148-6.336,12.204-8.351,17.136-1.98,4.788-3.384,8.532-3.816,11.52 .431-.073.863-.144 1.331-.252z" fill="#f00" fill-rule="evenodd"/>
 <path d="m20.336,76.99c-.684,1.188-.756,2.412-.216,4.068 .576,1.512 1.8,3.636 3.384,5.4 1.404,1.764 2.484,3.816 5.184,5.184 2.7,1.26 6.372,2.088 11.016,2.484-1.8,1.656-3.348,3.204-4.5,4.5-1.224,1.332-2.124,1.584-2.7,3.384-.612,1.656-1.08,3.96-1.116,6.768l9.252,2.484c2.088-6.768 4.536-13.212 7.632-19.62 3.024-6.408 6.516-12.6 10.62-18.72-.864-2.88-2.052-5.004-3.852-6.768-1.8-1.872-3.456-3.492-6.768-3.6-3.456-.036-9.144.9-13.752,3.384-4.68,2.412-9.359,6.048-14.184,11.052z" fill="#ff0" fill-rule="evenodd"/>
 <path d="m84.813,5.998c-1.332,1.188-1.692,4.392-1.368,7.668 .216,3.276.576,7.848 3.168,11.484 2.556,3.564 8.532,7.74 11.952,9.468 3.24,1.44 6.3,1.368 7.632-.216 1.116-1.692.396-5.22-.216-9.036-.504-3.888-.756-10.548-3.132-13.716-2.52-3.204-8.748-4.284-11.736-5.184-3.025-.972-5.076-1.728-6.3-.468z" fill="#c0c0c0" fill-rule="evenodd"/>
 <path d="m212.793,145.138c-2.27-2.34-4.248-3.78-6.084-3.924-1.908-.288-3.133-.036-5.076,2.556-2.016,2.628-4.141,6.912-6.66,13.141-2.52-2.629-4.176-3.349-5.111-2.16-.973,1.151-2.449,7.92-.396,9.216 2.051,1.152 10.656-1.08 12.348-1.98 1.549-.936.504-2.376-3.133-3.924 1.945-4.14 3.602-7.128 5.113-8.819 1.475-1.729 2.52-1.872 3.707-1.549 1.117.217 2.053,1.188 2.953,2.916 1.402-2.699 1.979-3.672 2.123-3.312 .107.432-.611,2.196-1.764,5.688-1.26-2.231-2.305-3.456-3.527-3.527-1.225-.072-2.521,1.26-3.492,2.735-1.08,1.296-1.836,2.952-2.557,5.112 1.836,1.548 2.881,2.844 3.133,3.888 .215.973.467,1.225-1.766,2.16-2.41.828-9.719,3.492-12.348,3.132-2.771-.432-3.635-2.664-3.707-5.292-.037-2.771 1.656-8.964 3.131-10.367 1.369-1.404 3.061-.685 5.076,2.159 2.412-5.688 4.537-9.54 6.66-11.952 2.053-2.34 4.141-2.088 5.688-2.159 1.369-.145 2.232.468 3.133,1.548s1.8,2.517 2.556,4.714z" fill-rule="evenodd" stroke="#000" stroke-miterlimit="10" stroke-width=".036"/>
 <path d="m183.164,178.618c.576,3.168 1.404,5.363 2.916,6.588 1.369,1.296 2.557,1.62 5.652.684 3.168-1.152 7.199-3.528 12.779-7.271 .613,3.527 1.584,5.111 3.061,4.607 1.367-.612 6.408-5.328 5.4-7.488-1.117-2.231-9.541-5.111-11.377-5.147-1.799-.036-1.691,1.584.469,5.004-3.924,2.376-6.912,3.888-9.107,4.536-2.197.54-3.24.107-3.961-.72-.828-.792-1.115-2.196-.863-4.068-2.629,1.368-3.781,1.944-3.6,1.584 .143-.36 1.619-1.62 4.57-3.78-.215,2.521.072,4.104 1.01,4.896 .971.611 2.734.216 4.463-.36 1.512-.576 3.205-1.476 4.932-2.844-.719-2.376-.828-3.996-.467-5.004 .324-1.044.143-1.368 2.664-.828 2.412.576 9.936,2.34 12.023,4.176 1.943,1.836 1.549,4.14.217,6.48-1.441,2.231-6.445,6.443-8.354,6.947-1.943.396-2.916-1.188-3.059-4.607-5.148,3.384-9.145,5.436-12.133,6.3-2.951.684-4.787-.54-5.939-1.332-1.189-.792-1.729-1.656-1.764-3.024-.288-1.405-.036-3.134.468-5.329z" fill-rule="evenodd" stroke="#000" stroke-miterlimit="10" stroke-width=".036"/>
 <path d="m221.9,177.033c2.736-.72 4.717-1.691 5.652-3.06 .936-1.44 1.26-2.484.145-5.076-1.297-2.628-3.637-6.264-7.453-10.764 3.061-.864 4.393-1.836 3.852-3.061-.611-1.367-5.219-5.184-7.02-4.212-1.836,1.044-3.852,8.748-3.707,10.477 .143,1.548 1.512,1.332 4.391-.792 2.449,3.24 4.033,5.76 4.752,7.704 .576,1.872.324,2.699-.359,3.6-.721.828-1.764,1.044-3.527,1.044 1.404,2.16 2.016,3.24 1.691,3.096-.396-.144-1.584-1.403-3.707-3.779 2.268.036 3.635-.433 4.246-1.261 .576-.899-.107-2.628-.646-3.924-.613-1.403-1.584-2.735-2.916-4.14-2.016.792-3.529,1.008-4.393.792-.936-.36-1.297-.108-.936-2.304 .324-2.269 1.295-9.072 2.771-10.98s3.527-1.8 5.725-.647c2.088.972 6.156,5.147 6.768,6.84 .432,1.656-.793,2.628-3.816,3.06 3.385,4.212 5.508,7.632 6.516,10.26 .973,2.593-.287,4.104-.719,5.364-.541,1.116-1.441,1.477-2.557,1.764-1.225.252-2.809.252-4.753-.001z" fill-rule="evenodd" stroke="#000" stroke-miterlimit="10" stroke-width=".036"/>
 <path d="m219.848,77.926c4.934-.396 9.793.072 14.869,1.008 5.004.9 9.936,2.664 15.084,4.896-.037,4.428-.072,8.496-.396,12.348-.359,3.78-.721,7.344-1.367,10.548 1.547-.72-.793.756-7.416,4.716-6.732,3.96-21.744,13.211-31.969,18.612-10.26,5.22-19.729,9.576-28.98,12.924-25.271-.216-52.127-1.728-82.08-4.68-30.024-3.024-61.488-7.2-96.192-12.96-.972-5.256-1.476-9.108-1.368-11.952 .072-2.844.612-4.428 1.764-4.896l27.036-16.632 1.152.576c-8.46,4.932-14.724,8.712-19.368,11.772-4.68,2.88-6.66,2.772-8.028,6.048-1.368,3.384-1.368,7.775 0,13.716 11.808,3.096 32.004,5.904 61.704,8.82 29.844,2.844 67.608,5.544 115.379,8.243 12.277-5.004 23.58-10.439 34.885-16.451 11.16-6.084 21.707-12.492 31.932-19.62 .648-3.672.9-7.02 1.152-10.188 .072-3.204.145-5.976-.18-8.604-3.168,3.96-10.369,9.396-21.744,16.452-11.557,7.128-26.713,15.408-46.439,25.668 .719,6.804.971,10.26.611,10.367-.359,0-1.332-3.132-2.771-9.792-21.313.145-42.588-.504-65.233-1.943-22.788-1.62-51.084-4.104-69.336-6.876-18.216-2.808-34.956-8.388-38.412-9.396-3.276-1.044 7.272,1.512 18.612,3.348 11.268,1.872 32.652,5.616 48.6,7.632 15.804,1.908 28.692,2.628 46.044,3.708 17.316.972 36.252,1.691 57.385,2.16 6.264-3.133 12.814-6.408 19.799-9.973 6.984-3.708 15.084-7.452 21.924-11.375 6.768-4.068 13.752-8.244 18.613-11.952 4.715-3.6 8.1-6.804 10.008-9.612-3.672-1.512-7.561-2.736-11.953-3.528s-9-1.296-14.111-1.368c.251-.576.503-1.152.79-1.764z" fill-rule="evenodd" stroke="#000" stroke-miterlimit="10" stroke-width=".036"/>
 <path d="m217.293,90.67 3.131.792c-5.291,5.436-11.771,10.476-19.584,15.264-7.92,4.68-16.775,9.108-27.252,13.14-23.436.864-46.727.217-71.279-1.943-24.516-2.232-49.032-5.76-74.664-10.98l3.348-3.132-7.056,2.556c.936,1.692 6.768,3.42 17.64,5.472 10.908,1.98 30.852,4.644 47.196,6.479 16.38,1.836 35.352,3.637 49.968,4.284 14.363.504 26.279.072 36.037-1.152 10.727-4.392 19.943-9 28.223-14.111 8.244-5.112 14.977-10.548 20.771-16.452l-6.658-2.376c.034.718.107,1.439.179,2.159z" fill-rule="evenodd" stroke="#000" stroke-miterlimit="10" stroke-width=".036"/>
 <path d="m29.984,107.518c-.288-1.908.18-3.816 1.404-5.868 1.188-2.16 5.508-5.04 5.868-6.264 .18-1.188-2.304-.288-4.104-.792-1.836-.612-4.392-1.548-6.3-2.952-1.98-1.548-3.816-3.924-5.076-5.868-1.188-1.979-1.836-4.536-2.34-5.868-.72-1.368-2.088-1.44-1.584-2.556 .396-1.26 1.836-3.276 4.32-5.076 2.484-1.979 6.66-4.14 10.584-6.084 3.888-2.088 9.108-4.5 12.312-5.292 2.988-.756 4.14.396 6.084,1.368 1.944.936 4.356,2.484 5.688,4.5 1.152,1.944 1.872,4.248 1.764,7.056l-.972,1.764c-.216-3.816-1.08-6.804-2.736-8.82-1.656-2.052-3.96-3.276-7.056-3.528-6.66,2.268-12.168,4.752-16.668,7.452-4.608,2.664-7.884,5.544-10.368,8.64 .792,3.276 2.16,6.012 4.5,8.208 2.34,2.268 6.588,5.148 9,4.896 2.304-.468 4.104-7.092 4.716-7.236 .54-.072-2.16,5.292-1.584,6.66 .504,1.224 4.32.108 4.5.972-.144.864-2.772,2.232-4.284,4.104-1.512,1.692-3.42,4.248-4.32,6.3-.936,2.052-1.332,3.96-1.188,5.868-.72-.504-1.439-1.044-2.16-1.584z" fill-rule="evenodd" stroke="#000" stroke-miterlimit="10" stroke-width=".036"/>
 <path d="m40.388,109.894c2.124-7.056 4.572-13.212 7.056-19.008 2.484-5.832 5.436-11.304 8.028-15.3 2.628-4.104 4.86-6.912 7.236-8.82 5.796-.108 11.232,1.188 16.452,3.744 5.22,2.592 10.08,6.408 14.724,11.736-1.62.684-2.844,1.368-3.528,1.764-.756.36-.972.72-.792.792-4.32-4.716-8.892-8.064-13.716-10.188-4.896-2.124-9.9-3.132-15.3-2.736-3.672,5.688-7.02,11.628-10.188,18.216-3.204,6.588-6.084,13.284-8.784,20.772l-1.188-.972z" fill-rule="evenodd" stroke="#000" stroke-miterlimit="10" stroke-width=".036"/>
 <path d="m82.904,107.518c-.468,2.016-.864,3.78-1.188,5.292-.396,1.548-.612,2.7-.792,3.744l1.368.18 1.188-6.84c-.18-.792-.359-1.584-.576-2.376z" fill-rule="evenodd" stroke="#000" stroke-miterlimit="10" stroke-width=".036"/>
 <path d="m86.829,117.13c-1.368-1.908-2.412-4.356-3.528-7.632-1.116-3.24-2.052-7.164-2.952-11.772 .144-2.016 1.008-4.14 2.736-6.66 1.728-2.556 4.536-6.228 7.452-8.244 2.88-2.124 6.336-3.168 9.792-4.104 3.456-.9 6.84-1.404 10.584-1.368 3.348,3.168 6.3,7.02 9.396,11.952 2.988,4.932 5.867,10.44 8.641,17.064l-1.369.756c-2.052-4.572-4.428-9.144-7.271-13.716-2.916-4.572-6.048-9.144-9.792-13.716-5.148.72-9.648,1.836-13.5,3.348-3.924,1.512-7.128,2.952-9.612,5.688-2.592,2.736-4.32,6.048-5.472,10.368 .792,3.996 1.764,7.236 2.916,10.404 1.116,2.952 2.376,5.688 3.924,7.812-.649-.037-1.297-.109-1.945-.18z" fill-rule="evenodd" stroke="#000" stroke-miterlimit="10" stroke-width=".036"/>
 <path d="m81.32,99.31c.468,1.584 1.836,2.628 4.5,2.736 2.628.108 7.632-.612 10.98-1.764 3.276-1.26 6.084-1.944 8.424-5.508 2.16-3.636 3.78-8.892 4.716-16.056h1.368c-.072,6.444-1.008,11.592-2.952,15.3-1.98,3.672-5.364,5.328-8.604,7.056-3.348,1.62-8.028,2.736-10.98,2.916-2.988.144-5.22-.504-6.84-1.944-.18-.9-.395-1.8-.612-2.736z" fill-rule="evenodd" stroke="#000" stroke-miterlimit="10" stroke-width=".036"/>
 <path d="m96.225,89.698c-1.656,1.224-3.888,4.104-3.924,5.292-.072,1.152 1.836,1.8 3.924,1.368 2.088-.684 7.236-3.276 8.208-4.716 .828-1.584-1.836-3.528-3.132-3.888-1.477-.396-3.492.756-5.076,1.944z" fill-rule="evenodd" stroke="#000" stroke-miterlimit="10" stroke-width=".036"/>
 <path d="m80.745,72.634c.396-4.5 1.548-8.424 3.312-12.312 1.764-3.924 4.14-7.272 7.272-10.584 7.848,1.08 14.328,2.844 19.584,5.688 5.184,2.772 9.036,6.372 11.556,10.944-.288,3.564-.936,6.624-1.944,9.612-1.08,2.88-2.52,5.544-4.32,7.848l-.972-1.188c1.728-2.088 2.988-4.392 3.924-7.056 .936-2.628 1.404-5.616 1.548-8.82-6.192-4.644-11.484-7.956-16.452-10.368-4.968-2.34-9.18-3.636-12.924-3.744-3.06,3.816-5.4,7.452-6.876,11.196-1.548,3.672-2.268,7.164-2.16,10.764-.504-.648-1.008-1.296-1.548-1.98z" fill-rule="evenodd" stroke="#000" stroke-miterlimit="10" stroke-width=".036"/>
 <path d="m109.977,36.238c4.644.9 7.812,2.412 9.792,4.68 1.908,2.268 2.628,6.876 1.764,8.82-1.044,1.8-6.264,3.312-7.452,2.16-1.296-1.26.684-6.876.396-9.216-.288-2.412-.9-3.852-1.98-4.716 1.44.864 2.412,2.124 2.772,3.924 .36,1.764-1.008,5.184-.612,6.66 .36,1.332 1.584,1.728 2.556,1.584 .936-.252 2.448-1.512 2.736-2.952 .036-1.656-.288-4.14-1.944-6.048-1.729-1.872-4.357-3.456-8.028-4.896z" fill-rule="evenodd" stroke="#000" stroke-miterlimit="10" stroke-width=".036"/>
 <path d="m128.553,75.01 .576,1.368h-9.216l.396-1.944z" fill-rule="evenodd" stroke="#000" stroke-miterlimit="10" stroke-width=".036"/>
 <path d="m132.656,82.462 .793,2.16-17.244-1.764 .971-1.188z" fill-rule="evenodd" stroke="#000" stroke-miterlimit="10" stroke-width=".036"/>
 <path d="m137.553,102.442c-.432-6.084-1.404-11.376-3.313-16.452-1.943-5.076-6.553-9.54-7.848-13.536-1.368-3.96-.864-6.768 0-10.368 .9-3.888 4.932-8.568 5.291-11.952 .217-3.276-2.016-5.832-3.348-7.668-1.439-2.016-3.744-2.376-4.284-3.708-.576-1.368-.108-2.592 1.548-4.104 1.655-1.584 6.265-4.968 8.423-4.896 1.945.144 3.313,3.528 4.105,5.292 .828,1.584-.396,2.808.791,4.5 1.117,1.584 3.529,3.744 5.869,5.076 2.34,1.224 4.715,2.124 7.668,2.556l-.973,1.368c-2.484-.144-4.787-.864-7.057-2.16-2.268-1.368-4.428-3.276-6.479-5.868-.828-.612-1.369-1.728-1.766-2.952-.359-1.368-.035-3.924-.574-4.896-.686-1.116-1.549-1.692-3.133-1.152-1.691.576-5.797,3.096-6.48,4.5-.792,1.152.9,1.656 2.16,3.312 1.26,1.692 4.5,4.464 5.293,7.056 .539,2.556-.434,5.256-1.369,8.244-1.008,2.952-3.564,6.3-3.924,9.216-.469,2.736.145,5.256 1.549,7.416 2.699,3.924 4.68,8.496 6.479,13.716 1.693,5.328 2.881,10.98 3.709,17.64-1.188.684-2.016,1.008-2.34.972-.394-.036-.394-.469.003-1.152z" fill-rule="evenodd" stroke="#000" stroke-miterlimit="10" stroke-width=".036"/>
 <path d="m131.289,43.078c.863.144 1.943-.108 2.951-.612 1.08-.612 2.088-1.476 3.313-2.736l-.793-6.264c-.18,1.908-1.15,3.096-2.916,4.104-1.764.864-4.32,1.368-7.668,1.368l5.113,4.14z" fill-rule="evenodd" stroke="#000" stroke-miterlimit="10" stroke-width=".036"/>
 <path d="m177.117,30.333c-7.598,1.188-13.682,3.276-18.396,6.66-4.68,3.348-7.992,7.596-9.793,13.14 4.717,7.56 8.496,14.544 11.736,20.952 3.061,6.372 4.789,9.216 7.271,17.424 2.521,8.208 4.969,18.324 7.633,31.176l1.943-.216c-.107-7.74-2.16-17.208-6.443-28.8-4.355-11.7-10.512-24.876-19.008-40.356 2.699-3.888 5.328-6.912 8.027-9.216 2.592-2.34 4.789-3.384 7.848-4.5 3.025-1.26 6.48-1.98 10.369-2.556-.396-1.223-.792-2.447-1.187-3.708z" fill-rule="evenodd" stroke="#000" stroke-miterlimit="10" stroke-width=".036"/>
 <path d="m155.984,56.578c3.889-3.924 7.164-6.876 10.367-9 3.098-2.16 5.797-3.348 8.244-3.708 1.08,4.896 2.053,9.288 2.916,13.716 .828,4.428 1.549,8.352 2.16,12.312-3.455,2.016-6.264,3.996-8.424,6.084-2.232,2.124-3.6,4.068-4.5,6.264l-.791-2.556c3.814-4.572 6.479-7.632 8.424-9.576 1.871-1.836 2.736-2.556 2.736-1.764-.865-5.796-1.693-10.404-2.34-14.112-.721-3.708-1.262-6.336-1.766-8.028-4.752,2.844-8.531,5.4-11.34,7.812-2.807,2.34-4.643,4.392-5.508,6.3-.033-1.224-.105-2.484-.178-3.744z" fill-rule="evenodd" stroke="#000" stroke-miterlimit="10" stroke-width=".036"/>
 <path d="m151.664,55.605c-.611,1.152-1.836,2.376-3.527,3.528-1.764,1.224-3.996,2.16-6.84,3.348 5.291,2.448 10.439,7.452 15.443,14.868 4.969,7.488 9.756,17.172 14.508,29.592-2.195-7.416-4.607-13.968-7.236-19.8-2.734-6.012-5.615-10.944-8.639-15.084-3.096-4.104-6.193-7.128-9.576-9.216 1.656-.792 3.023-1.584 4.5-2.52 1.404-.936 2.664-1.872 3.924-2.952-.828-.575-1.692-1.151-2.557-1.764z" fill-rule="evenodd" stroke="#000" stroke-miterlimit="10" stroke-width=".036"/>
 <path d="m154.004,73.246c-.936,2.412-1.908,4.32-2.916,5.868-1.08,1.584-2.088,2.448-3.168,3.132 4.717,2.952 8.965,7.56 12.744,14.112 3.781,6.588 6.949,14.688 9.793,24.875h1.188c-1.297-5.22-3.061-10.296-5.293-15.66-2.375-5.472-5.58-12.024-8.207-16.056-2.592-3.96-4.896-6.516-7.057-7.668 .828-1.26 1.764-2.448 2.521-3.708 .756-1.332 1.475-2.592 2.158-3.924-.574-.323-1.15-.647-1.763-.971z" fill-rule="evenodd" stroke="#000" stroke-miterlimit="10" stroke-width=".036"/>
 <path d="m179.889,118.102c1.439-6.624 2.412-14.076 2.916-22.932 .467-8.964.973-19.116 0-29.772-1.08-10.764-3.852-24.876-6.084-33.876-2.34-9-4.789-15.552-7.633-19.8 4.609-4.5 9.9-7.704 16.273-9.612 6.371-2.016 16.02-2.34 21.563-1.944 5.365.396 9,1.836 10.764,4.32-1.979,7.056-3.348,15.768-4.104,26.424-.828,10.656-.576,25.452-.611,37.044-.107,11.592-.037,21.78.215,31.536l-2.158,1.764c-.541-18.936-.721-34.92-.396-48.78 .215-13.932 1.188-25.668 1.943-33.696 .793-7.992 1.512-12.528 2.557-13.896-7.957-2.7-15.121-3.492-22.32-2.376-7.164,1.152-13.752,4.068-20.195,9.036 2.123,4.212 4.211,10.62 6.264,19.764 2.016,9.036 4.824,23.4 5.904,34.488 .898,10.944.684,22.428.18,31.14-.504,8.604-1.549,15.3-3.133,20.376-.65.252-1.297.503-1.945.792z" fill-rule="evenodd" stroke="#000" stroke-miterlimit="10" stroke-width=".036"/>
 <path d="m211.209,42.466c-.469-1.008-2.557-1.368-6.66-1.368-4.141.072-9.865.504-17.604,1.584 .143-6.552.252-11.808.18-16.056-.109-4.284-.252-7.308-.576-9.216 3.707-1.296 7.344-2.016 11.34-1.764 3.889.072 7.992,1.116 12.168,2.736-5.076-1.188-9.289-1.728-12.924-1.764-3.6-.072-6.48.504-8.641,1.584 .648,5.22.973,9.612.973,13.32 0,3.6-.324,6.516-.973,8.604 3.313-.72 6.768-1.116 10.764-1.188 3.924-.144 8.172.252 12.744.792-.252.9-.504,1.8-.791,2.736z" fill-rule="evenodd" stroke="#000" stroke-miterlimit="10" stroke-width=".036"/>
 <path d="m190.652,47.397c4.969-1.296 8.783-2.088 11.736-2.376 2.844-.36 4.68-.18 5.508.396-.756.9-2.34,1.692-5.293,1.98-2.878.325-6.91.325-11.951,0z" fill-rule="evenodd" stroke="#000" stroke-miterlimit="10" stroke-width=".036"/>
 <path d="m187.305,52.654c5.039-1.224 8.82-2.052 11.771-2.34 2.844-.36 4.717-.18 5.473.396-.756.972-2.34,1.62-5.293,1.944-2.879.324-6.912.324-11.951,0z" fill-rule="evenodd" stroke="#000" stroke-miterlimit="10" stroke-width=".036"/>
 <path d="m190.832,57.586c5.041-1.296 8.82-2.088 11.771-2.376 2.846-.36 4.717-.18 5.473.396-.756.9-2.34,1.692-5.291,1.98-2.881.324-6.912.324-11.953,0z" fill-rule="evenodd" stroke="#000" stroke-miterlimit="10" stroke-width=".036"/>
 <path d="m187.305,74.254c2.879-1.98 5.615-3.096 8.064-3.348 2.412-.324 4.68.288 6.66,1.692-2.197-.324-4.393-.504-6.877-.144-2.519.324-5.039.792-7.847,1.8z" fill-rule="evenodd" stroke="#000" stroke-miterlimit="10" stroke-width=".036"/>
 <path d="m189.285,78.178c2.916-2.016 5.543-3.096 8.027-3.384s4.572.288 6.66,1.728c-2.125-.324-4.355-.504-6.84-.144-2.519.324-5.04.792-7.847,1.8z" fill-rule="evenodd" stroke="#000" stroke-miterlimit="10" stroke-width=".036"/>
 <path d="m213.584,22.702c1.045-.396 2.557-1.188 4.68-1.98 2.053-.972 4.609-1.944 7.668-3.312-2.051,6.084-3.887,13.932-5.508,23.688-1.584,9.792-2.951,21.096-4.104,34.488-.324-8.532 0-17.028.973-26.064 .971-9 2.555-18.108 4.895-27.612-.287.468-1.26,1.008-2.916,1.764-1.727.684-4.031,1.584-7.055,2.556 .431-1.152.9-2.34 1.367-3.528z" fill-rule="evenodd" stroke="#000" stroke-miterlimit="10" stroke-width=".036"/>
 <path d="m220.641,32.278c2.053-.54 4.104-1.188 5.867-1.944 1.729-.828 3.457-1.692 4.896-2.736-.9,5.508-2.195,10.944-3.744,16.452-1.656,5.508-3.564,10.836-5.867,16.272 1.439-6.336 2.699-11.844 3.924-16.668 1.26-4.896 2.123-8.964 3.131-12.348-.898,1.044-1.908,1.8-3.311,2.556-1.441.72-3.025,1.152-4.896,1.584v-3.168z" fill-rule="evenodd" stroke="#000" stroke-miterlimit="10" stroke-width=".036"/>
 <path d="m227.66,41.71c1.98,1.728 3.6,3.636 4.717,5.868 1.115,2.196 1.764,4.68 1.943,7.452-6.48,6.948-10.908,13.752-13.68,20.556-2.736,6.804-3.709,13.32-2.771,19.979l-1.945,1.188c-.971-3.24-.791-7.092.396-12.132 1.188-5.148 3.924-12.6 6.66-17.64 2.592-5.04 5.545-9 9-12.168-.828-3.384-1.729-6.084-2.557-7.812-.936-1.764-1.799-2.844-2.736-2.952 .325-.755.649-1.547.973-2.339z" fill-rule="evenodd" stroke="#000" stroke-miterlimit="10" stroke-width=".036"/>
 <path d="m112.856,118.498c3.24-4.068 5.976-7.092 8.64-9.216 2.52-2.052 4.428-2.628 6.839-3.528 2.377-1.08 5.328-1.944 7.453-2.736 2.051-.828 3.311-.972 4.895-1.944 1.584-1.008 2.449-2.736 4.105-3.924 1.475-1.296 3.311-3.348 4.932-3.528 1.584-.324 3.455,1.044 4.5,2.16 .973,1.116 1.404,2.988 1.152,4.5-.434,1.404-1.908,2.304-3.313,4.104-1.512,1.764-4.283,3.996-5.111,6.264-.793,2.196.574,4.788.215,6.66-.396,1.764-1.295,2.916-2.555,3.744l-2.557-.216c1.547-.756 2.412-1.729 2.736-3.313 .215-1.62-1.404-3.96-.973-5.904 .396-2.016 1.943-4.104 3.527-5.868 1.477-1.98 4.393-3.492 5.293-5.076 .791-1.656.359-3.06-.18-3.924-.686-.828-1.873-1.476-3.133-.972-1.225.396-2.232,1.944-4.141,3.528-1.979,1.476-4.066,3.564-7.631,5.292-3.744,1.584-10.404,2.124-14.292,4.68-3.924,2.52-6.768,5.94-8.82,10.404-.5-.395-1.041-.791-1.581-1.187z" fill-rule="evenodd" stroke="#000" stroke-miterlimit="10" stroke-width=".036"/>
 <path d="m147.561,96.934c-.936,2.088-1.188,3.564-.611,4.716 .467,1.008 1.764,1.692 3.744,1.764l-4.141,3.924c-2.268-.54-3.564-1.332-4.285-2.376-.719-1.116-.611-2.484.182-4.104 1.691-1.296 3.382-2.592 5.111-3.924z" fill-rule="evenodd" stroke="#000" stroke-miterlimit="10" stroke-width=".036"/>
 <path d="m42.188,39.082c7.164-6.48 14.148-12.528 21.348-18.288 7.164-5.832 14.149-11.124 21.348-16.273 6.012-.072 10.656.9 14.22,3.06 3.456,2.16 5.328,5.508 6.876,9.648 1.512,3.96 2.088,10.692 2.016,14.22-.216,3.456-.396,6.228-3.024,6.372-2.808,0-9.18-3.24-12.708-6.12-3.564-3.06-6.516-7.74-7.884-11.412-1.404-3.708-1.44-7.092-.252-10.44-.504,3.888.108,7.488 2.268,11.196 2.088,3.636 7.2,8.388 10.188,10.656 2.88,2.124 5.472,2.88 7.092,2.556 1.548-.36 2.232-1.008 2.052-4.32-.324-3.348-1.62-11.988-3.312-15.516-1.62-3.564-3.78-4.716-6.624-5.832-2.952-1.26-6.588-1.548-10.908-1.26-12.024,8.461-21.204,15.444-27.971,21.097-6.732,5.58-10.872,9.684-12.42,12.456-.612,4.068-.36,7.92.756,11.412 1.08,3.528 2.7,6.84 5.832,9.648 3.132,2.736 7.272,4.896 12.708,6.624 9.288-7.128 16.992-13.032 23.652-18.288 6.624-5.184 11.628-9.432 15.588-12.744l2.088.468c-4.896,5.508-10.728,10.944-17.928,16.596-7.309,5.652-15.336,11.232-24.913,17.027-6.264-3.456-10.8-6.804-14.004-10.188s-4.104-6.444-5.076-10.152c-1.044-3.815-1.332-7.703-1.008-12.203z" fill-rule="evenodd" stroke="#000" stroke-miterlimit="10" stroke-width=".036"/>
 <path d="m92.012,13.917c-1.08.792-1.044,4.32.504,5.868 1.332,1.476 6.408,3.78 7.596,3.024 1.008-1.008.936-6.588-.504-8.136-1.403-1.439-6.48-1.692-7.596-.756z" fill-rule="evenodd" stroke="#000" stroke-miterlimit="10" stroke-width=".036"/>
 <path d="m7.665,125.302c2.232,12.78 3.816,24.84 4.608,36.612 .828,11.808.864,22.716.252,33.552 .864,2.556 4.788,4.824 11.916,7.092 7.056,2.196 15.408,3.96 30.492,6.12 15.12,2.124 42.12,5.148 59.22,6.588 16.92,1.296 31.824,1.872 41.939,1.296 9.828-.792 11.088-2.771 17.533-5.112 6.443-2.231 13.139-4.968 21.348-8.64 8.207-3.996 20.592-9.107 27.432-14.22 6.66-5.112 10.943-10.188 12.709-15.769 2.268-10.188 3.742-20.124 4.57-30.491 .828-10.44.865-20.628.252-31.249l-2.268,1.26c.865,9.9.865,19.836 0,30.24-.936,10.403-2.664,20.808-5.328,31.788-1.979,3.852-6.047,7.956-12.203,12.456-6.264,4.392-15.264,9.684-24.912,14.22-9.721,4.536-20.592,8.676-33.049,12.708-14.867.647-31.752.18-51.335-1.26-19.692-1.549-49.176-4.788-65.556-7.633-16.308-2.916-26.748-6.084-31.752-9.647 1.224-14.22 1.512-26.784 1.008-38.376-.648-11.664-1.908-21.636-4.32-30.744-.828-.251-1.693-.503-2.556-.791z" fill-rule="evenodd" stroke="#000" stroke-miterlimit="10" stroke-width=".036"/>
 <path d="m167.541,142.078c-.541,11.592-1.297,22.752-2.557,34.056-1.297,11.268-2.809,22.14-4.824,33.048 2.34-4.536 4.465-12.42 6.084-23.652 1.584-11.411 2.953-25.703 3.816-43.703-.828.07-1.656.143-2.519.251z" fill-rule="evenodd" stroke="#000" stroke-miterlimit="10" stroke-width=".036"/>
 <path d="m109.581,136.75c1.476,9.18 2.16,18.611 2.052,28.728-.144,10.152-1.08,20.376-2.808,31.5 3.24-7.488 6.12-15.408 8.64-24.156s4.536-17.928 6.336-27.936c-1.764,6.479-3.528,13.032-5.58,19.8-2.052,6.804-4.248,13.536-6.588,20.592 1.548-14.075 2.52-24.768 2.772-32.76 .252-8.028-.216-12.815-1.26-14.76-1.188-.324-2.376-.649-3.564-1.008z" fill-rule="evenodd" stroke="#000" stroke-miterlimit="10" stroke-width=".036"/>
 <path d="m71.708,134.985c1.476,9.108 2.16,18.576 2.052,28.692-.144,10.116-1.08,20.484-2.808,31.536 3.24-7.488 6.12-15.408 8.64-24.156 2.484-8.784 4.608-17.964 6.372-27.972-1.728,6.552-3.6,13.032-5.616,19.836-2.052,6.804-4.248,13.536-6.588,20.592 1.62-14.04 2.556-24.84 2.808-32.796s-.18-12.816-1.296-14.724c-1.188-.323-2.376-.647-3.564-1.008z" fill-rule="evenodd" stroke="#000" stroke-miterlimit="10" stroke-width=".036"/>
 <path d="m26.132,189.202c-3.096,2.411-5.616,5.147-7.416,8.208-1.872,2.951-3.78,5.472-3.636,10.188 .108,4.752 1.584,10.62 4.428,18.036 8.856,2.088 17.532,3.563 26.568,4.572 9.036.936 17.892,1.403 27.108,1.26-2.556-3.096-4.176-6.156-5.004-9.612-.9-3.456-.648-7.523-.072-10.691 .54-3.133 1.404-5.832 3.276-8.244 1.764-2.484 4.14-4.788 7.272-6.769-9.144-1.8-17.964-3.275-26.748-4.428-8.82-1.117-17.316-2.088-25.776-2.52z" fill="#ff0" fill-rule="evenodd"/>
 <path d="m79.592,195.826c-1.872-.108-4.284,1.871-6.408,4.392-2.124,2.484-5.328,5.868-6.012,10.296-.828,4.32.396,11.592 1.584,15.156 1.188,3.492 3.456,5.363 5.544,5.328 1.98-.288 3.888-3.42 6.264-6.48 2.304-3.096 7.02-7.92 7.632-11.844 .432-4.032-3.06-9.288-4.5-12.024-1.476-2.917-2.376-4.753-4.104-4.824z" fill="#c0c0c0" fill-rule="evenodd"/>
 <path d="m26.132,188.554c9.576.54 18.864,1.404 28.008,2.448 9.18,1.008 17.856,2.34 26.568,3.852 4.32,4.212 6.732,8.316 7.776,12.313 .864,3.924-.288,7.812-2.088,11.664-1.908,3.96-6.12,8.928-8.748,11.411-2.628,2.196-4.86,4.104-6.696,2.269-2.052-1.944-4.104-8.856-4.5-13.356-.396-4.571.936-10.188 2.628-13.644 1.656-3.528 4.032-6.012 7.272-7.452-3.096,2.269-5.22,5.364-6.372,9.432-1.152,3.925-1.008,11.16-.54,14.761 .432,3.6 1.764,5.832 3.168,6.84 1.188.936 2.376.792 4.536-1.548 2.268-2.593 7.272-9.54 8.748-13.212 1.26-3.673.792-6.013-.432-8.82-1.224-2.952-3.42-5.796-6.732-8.676-14.544-2.628-25.812-4.32-34.632-5.221-8.748-.899-14.58-1.008-17.64-.18-3.42,2.521-5.868,5.185-7.632,8.532-1.8,3.204-3.06,6.804-2.808,10.944 .18,4.067 1.62,8.676 4.176,13.68 11.592,1.691 21.24,3.06 29.628,4.104 8.28,1.008 14.904,1.801 20.016,2.232l1.116,1.8c-7.272.396-15.408,0-24.408-1.188-9.18-1.188-18.72-3.204-29.592-5.904-1.944-6.804-2.736-12.456-2.52-17.101 .252-4.607 1.584-7.487 3.708-10.728 1.944-3.312 4.609-6.445 7.992-9.252z" fill-rule="evenodd" stroke="#000" stroke-miterlimit="10" stroke-width=".036"/>
 <path d="m78.98,206.518c-1.512-.324-3.708,2.412-3.816,4.464-.108,2.088 1.584,7.2 3.132,7.561 1.44.144 5.256-3.996 5.472-6.048 .072-2.054-3.42-5.798-4.788-5.977z" fill-rule="evenodd" stroke="#000" stroke-miterlimit="10" stroke-width=".036"/>
</svg>
