<?xml version='1.0' encoding='utf-8'?>
<svg xmlns="http://www.w3.org/2000/svg" width="4000" height="2500" viewBox="0 0 1058.3333 661.45835" version="1.1" id="svg8"> <defs id="defs2"/> <metadata id="metadata5"> </metadata> <g id="layer2" transform="translate(0,-132.29167)"> <rect style="opacity:1;fill:#00ffff;fill-opacity:1;stroke:none;stroke-width:12.69182682;stroke-linejoin:miter;stroke-miterlimit:4;stroke-dasharray:none;stroke-dashoffset:0;stroke-opacity:1" id="rect4567" width="1058.3334" height="661.45831" x="-1.7763568e-015" y="132.29167" ry="0.87429214"/> </g> <g id="layer3" transform="translate(0,-132.29167)"/> <g id="layer1" transform="translate(0,364.45835)"> <path style="fill:#000000;stroke:none;stroke-width:0.03517658px;stroke-linecap:butt;stroke-linejoin:miter;stroke-opacity:1" d="m 143.70853,110.33988 h 9.95908 v 23.28808 l 26.69413,0.001 -0.13659,-23.28922 h 9.95908 l 0.65467,62.59414 -47.14722,1e-5 z" id="path4520"/> <g id="g5215" transform="translate(276.67857,-19.654762)"> <rect ry="14.994573" y="541.44757" x="587.99298" height="261.92413" width="175.32881" id="rect4570" style="opacity:1;fill:#ffff00;fill-opacity:1;stroke:none;stroke-width:10;stroke-linejoin:miter;stroke-miterlimit:4;stroke-dasharray:none;stroke-dashoffset:0;stroke-opacity:1" transform="translate(0,-496.75002)"/> <rect ry="7.4835467" y="564.12616" x="616.32355" height="14.967093" width="118.66766" id="rect4572" style="opacity:1;fill:#000000;fill-opacity:1;stroke:none;stroke-width:10;stroke-linejoin:miter;stroke-miterlimit:4;stroke-dasharray:none;stroke-dashoffset:0;stroke-opacity:1" transform="translate(0,-496.75002)"/> <g id="g4594" transform="matrix(0.42485672,0,0,0.42485672,490.15139,189.3982)" style="fill:#008000"> <g transform="translate(-134.70384,189.22682)" id="g4578" style="fill:#008000"> <path style="fill:#008000;stroke:none;stroke-width:0.26458332px;stroke-linecap:butt;stroke-linejoin:miter;stroke-opacity:1" d="m 561.21236,-82.020664 c 2.17874,0.3904 4.52691,2.10745 3.37086,5.46313 l 0.34871,31.9651 0.11624,32.895 c 0.82906,5.57527 -4.27656,4.34033 -5.7238,4.79391 l -59.71749,-0.26067 c -48.77216,-3.212675 -31.73996,-57.59644 -14.41336,-74.39152 z" id="path4574"/> <path style="fill:#008000;fill-opacity:1;stroke:none;stroke-width:0.26458332px;stroke-linecap:butt;stroke-linejoin:miter;stroke-opacity:1" d="m 439.2563,-157.25105 -21.27132,37.07953 c -1.87019,6.05471 -0.40953,8.77857 0,12.55357 l 48.8077,84.407893 c -5.37796,-16.917864 1.56368,-35.570759 7.91584,-47.677079 l 28.36177,-48.935674 c 0.79264,-1.52094 1.93271,-0.95728 3.02215,-0.69742 l 13.71594,8.71775 c 2.96547,0.91196 3.24882,-0.8582 3.4871,-2.67344 l -30.45403,-55.44494 c -0.9485,-2.15114 -3.08115,-3.11814 -6.50926,-2.78968 l -64.16269,0.92989 c -0.81587,0.92367 -3.27585,0.25312 0.34871,3.95205 l 16.15691,8.48529 c 1.20695,0.0895 0.88519,1.0962 0.58118,2.09226 z" id="path4576"/> </g> <g id="g4586" transform="rotate(133.13594,462.59908,-74.909916)" style="fill:#008000"> <g transform="translate(8.4764728,18.428334)" id="g4584" style="fill:#008000"> <path style="fill:#008000;stroke:none;stroke-width:0.26458332px;stroke-linecap:butt;stroke-linejoin:miter;stroke-opacity:1" d="m 561.21236,-82.020664 c 2.17874,0.3904 4.52691,2.10745 3.37086,5.46313 l 0.34871,31.9651 0.11624,32.895 c 0.82906,5.57527 -4.27656,4.34033 -5.7238,4.79391 l -59.71749,-0.26067 c -48.77216,-3.212675 -31.73996,-57.59644 -14.41336,-74.39152 z" id="path4580"/> <path style="fill:#008000;fill-opacity:1;stroke:none;stroke-width:0.26458332px;stroke-linecap:butt;stroke-linejoin:miter;stroke-opacity:1" d="m 439.2563,-157.25105 -21.27132,37.07953 c -1.87019,6.05471 -0.40953,8.77857 0,12.55357 l 48.8077,84.407893 c -5.37796,-16.917864 1.56368,-35.570759 7.91584,-47.677079 l 28.36177,-48.935674 c 0.79264,-1.52094 1.93271,-0.95728 3.02215,-0.69742 l 13.71594,8.71775 c 2.96547,0.91196 3.24882,-0.8582 3.4871,-2.67344 l -30.45403,-55.44494 c -0.9485,-2.15114 -3.08115,-3.11814 -6.50926,-2.78968 l -64.16269,0.92989 c -0.81587,0.92367 -3.27585,0.25312 0.34871,3.95205 l 16.15691,8.48529 c 1.20695,0.0895 0.88519,1.0962 0.58118,2.09226 z" id="path4582"/> </g> </g> <g transform="rotate(-115.65221,563.46778,-2.9859977)" id="g4592" style="fill:#008000"> <path style="fill:#008000;stroke:none;stroke-width:0.26458332px;stroke-linecap:butt;stroke-linejoin:miter;stroke-opacity:1" d="m 561.21236,-82.020664 c 2.17874,0.3904 4.52691,2.10745 3.37086,5.46313 l 0.34871,31.9651 0.11624,32.895 c 0.82906,5.57527 -4.27656,4.34033 -5.7238,4.79391 l -59.71749,-0.26067 c -48.77216,-3.212675 -31.73996,-57.59644 -14.41336,-74.39152 z" id="path4588"/> <path style="fill:#008000;fill-opacity:1;stroke:none;stroke-width:0.26458332px;stroke-linecap:butt;stroke-linejoin:miter;stroke-opacity:1" d="m 439.2563,-157.25105 -21.27132,37.07953 c -1.87019,6.05471 -0.40953,8.77857 0,12.55357 l 48.8077,84.407893 c -5.37796,-16.917864 1.56368,-35.570759 7.91584,-47.677079 l 28.36177,-48.935674 c 0.79264,-1.52094 1.93271,-0.95728 3.02215,-0.69742 l 13.71594,8.71775 c 2.96547,0.91196 3.24882,-0.8582 3.4871,-2.67344 l -30.45403,-55.44494 c -0.9485,-2.15114 -3.08115,-3.11814 -6.50926,-2.78968 l -64.16269,0.92989 c -0.81587,0.92367 -3.27585,0.25312 0.34871,3.95205 l 16.15691,8.48529 c 1.20695,0.0895 0.88519,1.0962 0.58118,2.09226 z" id="path4590"/> </g> </g> </g> <g id="g5249" transform="matrix(1,0,0,0.7785388,-112.54384,219.70235)"> <rect ry="7.4835544" y="-155.22006" x="333.55237" height="95.147957" width="22.45064" id="rect5245" style="opacity:1;fill:#000000;fill-opacity:1;stroke:none;stroke-width:10;stroke-linejoin:miter;stroke-miterlimit:4;stroke-dasharray:none;stroke-dashoffset:0;stroke-opacity:1"/> <rect style="opacity:1;fill:#000000;fill-opacity:1;stroke:none;stroke-width:3.23576474;stroke-linejoin:miter;stroke-miterlimit:4;stroke-dasharray:none;stroke-dashoffset:0;stroke-opacity:1" id="rect5247" width="8.2853556" height="26.99423" x="340.50137" y="-177.13615" ry="2.1231434"/> </g> <g id="g5255" transform="matrix(1,0,0,0.7785388,-33.924783,219.70235)"> <rect ry="7.4835544" y="-155.22006" x="333.55237" height="95.147957" width="22.45064" id="rect5251" style="opacity:1;fill:#000000;fill-opacity:1;stroke:none;stroke-width:10;stroke-linejoin:miter;stroke-miterlimit:4;stroke-dasharray:none;stroke-dashoffset:0;stroke-opacity:1"/> <rect style="opacity:1;fill:#000000;fill-opacity:1;stroke:none;stroke-width:3.23576474;stroke-linejoin:miter;stroke-miterlimit:4;stroke-dasharray:none;stroke-dashoffset:0;stroke-opacity:1" id="rect5253" width="8.2853556" height="26.99423" x="340.50137" y="-177.13615" ry="2.1231434"/> </g> <g transform="matrix(1,0,0,0.7785388,139.94425,219.70235)" id="g5225"> <rect style="opacity:1;fill:#000000;fill-opacity:1;stroke:none;stroke-width:10;stroke-linejoin:miter;stroke-miterlimit:4;stroke-dasharray:none;stroke-dashoffset:0;stroke-opacity:1" id="rect5221" width="22.45064" height="95.147957" x="333.55237" y="-155.22006" ry="7.4835544"/> <rect ry="2.1231434" y="-177.13615" x="340.50137" height="26.99423" width="8.2853556" id="rect5223" style="opacity:1;fill:#000000;fill-opacity:1;stroke:none;stroke-width:3.23576474;stroke-linejoin:miter;stroke-miterlimit:4;stroke-dasharray:none;stroke-dashoffset:0;stroke-opacity:1"/> </g> <rect style="opacity:1;fill:#552200;fill-opacity:1;stroke:#ff0000;stroke-width:4.27977943;stroke-linejoin:miter;stroke-miterlimit:4;stroke-dasharray:none;stroke-dashoffset:0;stroke-opacity:1" id="rect5351" width="758.18451" height="40.029743" x="102.65353" y="172.93388" ry="20.014872"/> <path style="fill:#000000;stroke:none;stroke-width:0.03517658px;stroke-linecap:butt;stroke-linejoin:miter;stroke-opacity:1" d="m 370.49424,110.33989 h 9.95908 v 23.28808 l 26.69413,0.001 -0.13659,-23.28922 h 9.95908 l 0.65467,62.59414 -47.14722,1e-5 z" id="path5357"/> <path style="fill:#000000;stroke:none;stroke-width:0.03517658px;stroke-linecap:butt;stroke-linejoin:miter;stroke-opacity:1" d="m 538.31567,110.33989 h 9.95908 v 23.28808 l 26.69413,0.001 -0.13659,-23.28922 h 9.95908 l 0.65467,62.59414 -47.14722,1e-5 z" id="path5359"/> <path style="fill:#000000;stroke:none;stroke-width:0.03517658px;stroke-linecap:butt;stroke-linejoin:miter;stroke-opacity:1" d="m 645.66091,110.33989 h 9.95908 v 23.28808 l 26.69413,0.001 -0.13659,-23.28922 h 9.95908 l 0.65467,62.59414 -47.14722,1e-5 z" id="path5361"/> <path id="path5355" d="m 774.17282,110.33989 h 9.95908 v 23.28808 l 26.6941,0.001 -0.1366,-23.28922 h 9.9591 l 0.6547,62.59414 -47.14723,1e-5 z" style="fill:#000000;stroke:none;stroke-width:0.03517658px;stroke-linecap:butt;stroke-linejoin:miter;stroke-opacity:1"/> <g id="g5367" transform="matrix(1,0,0,0.7785388,397.74224,219.70235)"> <rect ry="7.4835544" y="-155.22006" x="333.55237" height="95.147957" width="22.45064" id="rect5363" style="opacity:1;fill:#000000;fill-opacity:1;stroke:none;stroke-width:10;stroke-linejoin:miter;stroke-miterlimit:4;stroke-dasharray:none;stroke-dashoffset:0;stroke-opacity:1"/> <rect style="opacity:1;fill:#000000;fill-opacity:1;stroke:none;stroke-width:3.23576474;stroke-linejoin:miter;stroke-miterlimit:4;stroke-dasharray:none;stroke-dashoffset:0;stroke-opacity:1" id="rect5365" width="8.2853556" height="26.99423" x="340.50137" y="-177.13615" ry="2.1231434"/> </g> <ellipse style="opacity:1;fill:#000000;fill-opacity:1;stroke:#ff5555;stroke-width:5;stroke-linejoin:miter;stroke-miterlimit:4;stroke-dasharray:none;stroke-dashoffset:0;stroke-opacity:1" id="path5369" cx="838.5553" cy="192.19281" rx="15.119047" ry="13.607142"/> <ellipse style="opacity:1;fill:#000000;fill-opacity:1;stroke:#ff5555;stroke-width:5;stroke-linejoin:miter;stroke-miterlimit:4;stroke-dasharray:none;stroke-dashoffset:0;stroke-opacity:1" id="ellipse5373" cx="660.55383" cy="191.12372" rx="15.119047" ry="13.607142"/> <ellipse style="opacity:1;fill:#000000;fill-opacity:1;stroke:#ff5555;stroke-width:5;stroke-linejoin:miter;stroke-miterlimit:4;stroke-dasharray:none;stroke-dashoffset:0;stroke-opacity:1" id="ellipse5375" cx="482.55231" cy="191.12372" rx="15.119047" ry="13.607142"/> <ellipse style="opacity:1;fill:#000000;fill-opacity:1;stroke:#ff5555;stroke-width:5;stroke-linejoin:miter;stroke-miterlimit:4;stroke-dasharray:none;stroke-dashoffset:0;stroke-opacity:1" id="ellipse5377" cx="304.55078" cy="192.19281" rx="15.119047" ry="13.607142"/> <ellipse ry="13.607142" rx="15.119047" cy="192.19281" cx="126.54928" id="ellipse5371" style="opacity:1;fill:#000000;fill-opacity:1;stroke:#ff5555;stroke-width:5;stroke-linejoin:miter;stroke-miterlimit:4;stroke-dasharray:none;stroke-dashoffset:0;stroke-opacity:1"/> </g> </svg>