<?xml version="1.0" encoding="UTF-8"?>
<!DOCTYPE svg PUBLIC "-//W3C//DTD SVG 1.1//EN" "http://www.w3.org/Graphics/SVG/1.1/DTD/svg11.dtd">
<!-- Creator: CorelDRAW SE -->
<svg xmlns="http://www.w3.org/2000/svg" xml:space="preserve" width="370.792mm" height="523.571mm" version="1.1" style="shape-rendering:geometricPrecision; text-rendering:geometricPrecision; image-rendering:optimizeQuality; fill-rule:evenodd; clip-rule:evenodd"
viewBox="0 0 50079 70714"
 xmlns:xlink="http://www.w3.org/1999/xlink">
 <defs>
  <style type="text/css">
   <![CDATA[
    .fil0 {fill:#729C3B}
   ]]>
  </style>
 </defs>
 <g id="Vrstva_x0020_1">
  <metadata id="CorelCorpID_0Corel-Layer"/>
  <g id="_530434800">
   <path class="fil0" d="M36147 42332c627,-53 1612,-305 2423,-396 485,-55 841,-60 1373,-71 990,-20 1791,22 2784,67l1015 75c176,10 205,-14 208,133 20,972 -154,1508 -663,2273 -526,790 -833,947 -1789,1110 -968,165 -1772,118 -2749,44 -908,-68 -1610,-361 -2000,-902 -184,-256 -356,-693 -436,-1011 -211,-834 -138,-424 -166,-1322zm2186 6910c-193,-393 -518,-370 -976,-592l-767 -427 -747 -628c-491,-499 -496,-366 -1051,-1190 -241,-358 -334,-667 -463,-1131 -261,-938 -299,-1899 -257,-2862 20,-448 97,-1025 218,-1418 137,-445 245,-762 446,-1146 216,-414 718,-1053 1112,-1283l964 -623c91,-56 155,-95 251,-149 1065,-593 1446,-688 2744,-871 1105,-156 1876,64 2771,355 706,229 1756,518 2282,902 479,350 1079,1242 1356,1868 162,365 374,681 499,1090 234,769 202,2123 12,2921 -194,819 -521,1576 -883,2333 -231,483 -661,999 -1047,1343 -462,412 -863,709 -1484,942 -295,110 -998,232 -1383,210 -465,-26 -902,-165 -1224,-371 -826,-527 -804,-1180 -929,-2332 1170,57 3003,9 3826,-763 202,-189 756,-1129 889,-1421 165,-360 207,-1880 119,-2067 -255,-542 -1121,-425 -1801,-498 -108,-12 -394,-11 -642,-26 14,-252 75,-591 90,-839 18,-279 -4,-618 -3,-905 2,-280 53,-551 -56,-779 -92,-192 -391,-259 -659,-194 -39,423 4,936 -9,1372 -10,321 -84,1041 14,1311l-3047 -10 21 -1628c7,-167 142,-856 -448,-811 -104,8 -272,63 -351,104 -53,1086 -80,1422 -32,2498 -468,38 -732,129 -1143,204 -417,76 -733,78 -1110,145 -15,261 62,280 62,386l-23 476c37,775 383,1658 816,2205 224,283 268,380 509,501 198,100 396,252 664,347 407,144 821,211 1239,280 135,22 345,44 430,99 1,427 15,805 93,1194 177,887 955,1555 1775,1829 1288,430 2887,343 3949,-512 376,-303 872,-661 1132,-1105 90,-152 81,-150 195,-278 407,-456 875,-1771 1114,-2457 117,-336 263,-1148 272,-1525 31,-1322 -86,-2055 -607,-2995 -212,-383 -380,-835 -637,-1171 -62,-81 -43,-31 -103,-110l-279 -409c-719,-888 -1689,-1276 -2851,-1661 -948,-315 -1836,-567 -2989,-585 -1019,-16 -2300,233 -3000,606 -198,106 -366,217 -591,317 -433,191 -730,451 -1117,689 -551,339 -981,813 -1348,1355 -490,721 -777,1802 -838,2733 -19,286 -73,544 -68,833 4,260 52,573 62,829 40,976 372,2171 811,2804 262,377 530,672 829,976l463 441c492,432 1028,811 1624,1082 347,157 637,321 1006,324 185,2 186,-64 304,-132z"/>
   <path class="fil0" d="M37450 42458c-159,42 -236,512 -320,786 -3,11 -477,1357 57,819 72,-71 115,-136 187,-210 148,-150 238,-243 381,-414 163,-196 596,-710 783,-817 -42,239 -452,1359 -354,1470 6,8 13,130 195,-26 212,-184 862,-1180 1134,-1302 -18,445 -365,1012 -176,1155 1,0 0,101 189,-7 261,-149 828,-1009 1149,-1153 -30,94 -24,421 -88,651 -54,196 -161,501 -87,648 197,3 541,-410 660,-539 59,-65 68,-84 139,-151 157,-150 372,-394 527,-429 -20,332 -239,709 -71,1021 329,-23 688,-504 859,-684 82,126 -37,178 112,329 195,-49 139,-118 136,-327 -1,-64 4,-147 -7,-209 -22,-128 -21,-101 -93,-152 -103,21 -484,481 -600,591 -103,98 -113,128 -274,146 18,-333 280,-825 43,-1079 -112,49 -472,430 -594,543 -106,97 -193,186 -292,286 -148,151 -191,221 -358,287 29,-185 308,-1083 83,-1208 -157,-87 -939,1041 -1299,1196 16,-395 360,-949 202,-1287 -205,4 -920,959 -1077,1164l-110 111c-40,33 -27,23 -71,52 33,-415 451,-1149 334,-1487 -234,9 -664,609 -815,770l-364 433c-74,74 -133,114 -204,193 -92,103 -69,107 -194,181l148 -689c60,-207 236,-539 130,-662z"/>
  </g>
  <g id="_530435952">
   <path class="fil0" d="M1114 22058c533,-80 825,-191 1286,80 185,108 583,635 666,894 226,706 -870,1663 -1238,1803 37,286 -52,191 84,395 169,252 578,182 875,276 686,218 340,1167 -119,1687 -163,186 -239,234 -471,367 -363,208 -983,177 -1524,173 -9,-449 71,-1028 120,-1426 109,-884 36,-2663 172,-3628 28,-202 102,-410 149,-621zm-583 -532l-186 701c-118,411 -156,1974 -165,2469l-157 2560c-51,435 -14,450 89,792 221,19 147,8 369,-2 219,352 308,143 696,189 265,31 643,14 904,-45 312,-71 245,67 667,-231 533,-376 651,-596 892,-1090 206,-422 221,-759 37,-1202 -53,-130 -146,-193 -223,-281 -153,-174 -377,-281 -660,-356 43,-83 -1,-24 49,-81 85,-98 130,-53 438,-430 586,-719 729,-1232 72,-2104 -341,-452 -560,-695 -1087,-896 -684,-260 -1110,1 -1306,-13 -88,-7 -56,-33 -212,-34 -105,-1 -152,16 -217,54z"/>
   <path class="fil0" d="M11101 25274c-12,416 -12,455 -155,941 -116,393 -169,515 -418,780 -627,666 -2127,817 -2527,59 -369,-698 -225,-2365 -122,-3136 91,-677 283,-1280 621,-1734 246,-329 595,-734 1067,-722 463,11 744,382 1043,782 246,328 252,370 349,852 141,706 164,1423 142,2178zm-1573 -4233c-263,52 -346,-42 -625,102 -134,69 -330,201 -430,290 -900,791 -1151,1955 -1275,3163 -193,1882 -62,3591 2296,3494 250,-11 400,-45 622,-104 348,-93 670,-266 927,-513 450,-431 509,-1051 619,-1615 41,-205 119,-312 130,-585 22,-557 -108,-2154 -276,-2640 -38,-110 -64,-164 -116,-240 -55,-80 -104,-168 -160,-244 -52,-70 -105,-140 -155,-202 -60,-76 -37,-31 -91,-93l-435 -500c-87,-105 -284,-229 -435,-291 -126,-53 -400,-60 -596,-22z"/>
   <path class="fil0" d="M5699 27978l270 -6c98,-196 97,-429 88,-710 -9,-285 23,-511 31,-796l37 -2348c32,-224 -30,-378 -20,-600 21,-436 -10,-991 35,-1419 29,-267 56,-393 -109,-555 -570,-562 -486,-202 -552,328 -64,516 -87,4027 -97,4955 -5,512 19,905 317,1151z"/>
   <path class="fil0" d="M6694 21060c27,-151 75,-179 163,-298 14,-19 30,-41 47,-63 351,-439 449,-633 408,-795 -71,-278 -294,231 -403,399 -102,156 -284,426 -451,509 -325,-74 -448,-357 -343,-759 118,-458 705,-672 1217,-1027 118,-82 224,-140 350,-228 131,-91 215,-197 337,-255l-251 1674c-172,762 -464,934 -1074,843zm1697 -3037l-120 -77c-128,48 -106,85 -186,172l-620 503c-497,386 -832,454 -1226,796 -425,370 -533,1054 -200,1433 79,89 154,97 225,168 106,106 -1,101 161,203 706,443 1228,98 1509,-721 282,-821 217,-1445 320,-1881 38,-162 142,-439 137,-596z"/>
  </g>
  <g id="_530436216">
   <path class="fil0" d="M2363 54312c337,-59 435,-97 725,-221 779,-333 1164,-278 1452,-1358 343,125 199,147 940,380 991,311 817,191 1894,262 6,9 12,22 16,30l29 57c4,9 7,19 11,28 5,11 28,77 28,79 331,920 827,1153 1563,1606l134 96c-64,220 -205,372 -268,674 -114,547 466,1619 671,2073 -7,8 -17,17 -22,21l-251 192c-100,94 -153,129 -254,216 -655,564 -723,1128 -596,2044 -608,-193 -1081,-282 -1755,-89 -903,259 -931,496 -1343,656 -387,-359 -472,-566 -1142,-760 -777,-225 -1261,-31 -1702,2 54,-268 184,-525 179,-873 -7,-566 -394,-986 -686,-1335 -86,-103 -156,-180 -247,-257l-296 -221c241,-149 475,-351 670,-556 173,-182 314,-507 422,-800 405,-1094 -90,-1488 -172,-1946zm1429 -2257c19,164 190,495 -33,901 -219,396 -876,594 -1401,810 -371,152 -698,-35 -926,116 8,54 10,41 29,78 249,478 295,209 486,741 261,727 -69,1680 -610,2160 -43,38 -47,49 -93,89 -143,120 -508,266 -656,418 81,203 83,269 248,394l423 259c370,257 782,791 776,1262 -3,224 -49,388 -117,575 -135,374 -254,603 -460,907 68,391 160,272 350,483 283,-21 737,-376 1220,-531 477,-153 1140,-55 1466,178 570,407 555,672 549,1171 -9,600 45,1142 38,1735 -3,310 -1,552 12,830l52 1736c0,727 -104,1797 -107,2566 -1,300 16,594 25,866 5,163 21,261 32,401 20,266 38,165 101,370 50,19 31,2 83,25 224,102 -10,83 244,114 654,82 236,-924 389,-1968 53,-360 117,-2442 90,-2736 -58,-634 -107,-1099 -110,-1770 -2,-315 4,-611 -37,-907 -41,-288 -106,-1565 -63,-1722 73,-271 1323,-1035 2073,-831 228,62 505,178 688,292 283,178 223,322 664,299l95 -95c-16,-277 -115,-236 -178,-392 -112,-282 -212,-1164 -34,-1565 141,-317 602,-741 940,-844 259,-80 224,26 421,-163 -23,-249 -65,-204 -198,-322 -249,-221 -476,-782 -580,-1091 -152,-447 -287,-785 68,-1268 117,-159 260,-161 289,-282 59,-243 -447,-391 -629,-480 -948,-466 -1364,-890 -1398,-2005 -340,-210 -491,-12 -1145,-24 -646,-12 -1132,-74 -1706,-301 -298,-117 -420,-311 -623,-384 -104,-38 -40,10 -135,-52 -107,-71 -317,-268 -612,-43z"/>
   <path class="fil0" d="M9120 65807c7,257 -59,409 -32,658 55,511 21,1405 -187,1825 -337,683 -1844,746 -2087,-357 -39,-180 -31,-442 9,-629 84,-395 416,-1099 707,-1359 328,-291 822,-724 1238,-825 -45,119 0,22 -55,123 -17,31 -44,66 -61,90l-287 469c-128,224 -242,419 -361,649 -118,228 -238,449 -356,659 -172,305 174,599 376,514 79,-33 421,-716 530,-907 90,-157 173,-279 265,-458l301 -452zm1139 -2066c119,-355 -215,-605 -419,-615 -79,120 -100,327 -180,465 -329,574 -630,640 -1058,863l-1204 710c-141,93 -224,161 -348,265 -225,190 -357,467 -526,737 -179,286 -318,482 -364,887 -86,764 44,1307 641,1801 630,521 2022,821 2726,-42 227,-278 184,-619 227,-962 30,-238 87,-292 45,-553 -30,-189 -41,-359 -41,-569 1,-267 -6,-984 73,-1185 128,-327 160,-674 316,-954 105,-189 441,-734 112,-848z"/>
   <path class="fil0" d="M4391 57115c97,588 732,967 1356,1011 686,49 741,-318 842,-565 36,-87 56,-107 83,-207 46,-170 51,-319 19,-505 -50,-288 -247,-631 -405,-779 -172,-160 -573,-305 -900,-296 -775,21 -1068,898 -995,1341z"/>
   <path class="fil0" d="M5087 55218c129,-45 771,-54 952,-33 305,34 966,400 1169,761 408,728 436,1544 49,2277 -749,1418 -3059,748 -3406,-772 -135,-594 -207,-1123 99,-1626 122,-200 247,-378 443,-500 417,-262 111,95 694,-107zm-122 -268c-371,45 -603,53 -809,284 -749,838 -742,1357 -465,2422l163 416c6,9 19,39 25,48l178 252c264,391 910,792 1301,861 277,49 756,65 1013,15 1370,-270 2140,-2931 364,-4059 -532,-339 -1096,-321 -1770,-239z"/>
   <path class="fil0" d="M2432 65063c-16,290 315,518 592,774 41,39 12,19 73,71 384,332 658,978 884,1360 335,566 301,456 718,541 360,-249 45,-243 -236,-996 -120,-325 -530,-836 -757,-1115 -94,-115 -194,-233 -312,-341 -192,-173 -580,-332 -863,-380l-99 86z"/>
   <path class="fil0" d="M3678 68689c639,931 456,910 1103,830 27,-71 44,-93 62,-188 -64,-131 -127,-222 -205,-338 -69,-102 -134,-216 -192,-320 -236,-419 -926,-1180 -1408,-1184 -832,-7 63,520 428,907 94,100 134,180 212,293z"/>
  </g>
  <g id="_530437608">
   <path class="fil0" d="M4235 44268c-440,-43 -591,-241 -499,-823 152,-965 63,-329 70,-1204 2,-281 -171,-790 -290,-1052 -80,-177 -164,-281 -269,-419 -122,-160 -155,-240 -263,-423 -45,-77 -83,-119 -127,-202 -350,-663 -359,-398 -833,-1550l-340 -1001c-330,-1358 -364,-2064 110,-3462 69,-206 107,-263 219,-434 469,-716 1262,-1139 2107,-1300 196,-38 398,-79 558,-124 838,-238 2297,-250 3092,-74 1419,314 2459,980 2874,2517 213,787 272,1572 -13,2352 -549,1502 -1484,1825 -2492,2933 -212,233 -433,450 -551,778 -449,1246 -273,1131 -355,2364 -14,207 -117,1002 -293,1088 -395,192 -1878,81 -2494,72 -13,-755 56,-1440 118,-2165 61,-701 187,-1382 -65,-2044 -530,-1392 -1512,-679 -1874,-2758 -145,-830 -312,-2258 238,-2970 666,-862 1144,-1041 2316,-1164 345,-36 790,5 1154,-4 195,-5 345,-39 541,-46 267,-8 262,71 482,-6 92,-411 -303,-250 -842,-228 -403,16 -803,-10 -1195,8 -390,18 -685,89 -1027,160 -593,123 -1122,509 -1453,963 -134,184 -374,487 -450,740 -308,1030 -92,3050 505,4025 446,728 1909,581 1446,3198l-126 1676c-1,219 25,352 21,579zm3573 217c-11,-420 116,-943 110,-1411 -7,-491 -28,-999 109,-1406 307,-905 229,-729 767,-1301l193 -205c357,-373 771,-553 1136,-959l749 -767c105,-161 174,-308 279,-479 459,-746 380,-1144 507,-1806 101,-525 -298,-1864 -633,-2363 -238,-355 -384,-563 -672,-843 -859,-833 -2028,-1172 -3299,-1291 -953,-89 -1957,-17 -2807,197 -854,216 -1444,331 -2156,874 -606,462 -895,961 -1153,1878 -109,389 -235,836 -238,1278 -9,1194 458,2627 979,3608l882 1395c269,348 418,512 503,1018 33,196 93,462 88,663 -21,846 -360,1752 775,2151 308,108 2378,233 2748,176 661,-102 681,-66 1133,-407z"/>
   <path class="fil0" d="M3774 46422c1024,11 1294,306 2736,234 252,-13 494,2 694,-74 256,-98 366,-30 541,-212 350,-366 283,-836 -4,-1047 -797,296 -1207,178 -1683,262 -290,51 -1516,-1 -1969,3 -556,6 -412,629 -315,834z"/>
   <path class="fil0" d="M5934 47203c-254,0 -1064,-31 -1254,11 -357,79 -344,520 -117,769 375,0 745,15 1081,24 361,8 778,33 1017,16 244,-17 845,-85 977,-175 217,-147 294,-505 178,-759 -519,-24 -1102,113 -1882,114z"/>
   <path class="fil0" d="M5217 49387l1404 -24c543,11 917,55 812,-640 -92,-167 -1605,-127 -1932,-81 -66,9 -89,22 -133,46 -48,26 -11,2 -66,41l-158 237c-33,160 14,315 73,421z"/>
   <path class="fil0" d="M4864 36627c112,1 107,-19 190,-64 110,-942 -149,-1434 452,-2048 279,-285 1044,-411 1479,-401 275,6 335,-73 200,-274 -327,-62 -896,48 -1144,128 -178,57 -304,116 -457,195 -182,93 -221,135 -338,306 -230,335 -357,349 -387,905 -19,339 -94,981 5,1253z"/>
  </g>
  <g id="_530438520">
   <path class="fil0" d="M48046 8480c-45,244 -31,419 -104,655 -272,884 -407,1997 -901,3006 -177,361 -362,660 -600,955 -491,608 -894,1021 -1787,1328 -1191,410 -2770,339 -3991,-119 -191,-71 -346,-126 -566,-194 -294,-91 -1245,-598 -1554,-793 -748,-473 -1871,-1578 -2132,-2542 -557,-2064 -228,-4512 875,-6361 58,-98 84,-131 151,-212 79,-97 82,-135 162,-236 302,-383 809,-854 1180,-1170 202,-173 439,-351 687,-472 88,-42 186,-73 279,-117 378,-183 1363,-358 1872,-446 469,-81 266,107 639,123 926,39 1645,256 2475,643 783,365 2054,1351 2558,2113 657,992 976,2653 757,3839zm-5857 -7159c-235,34 -546,7 -788,60 -1236,270 -1868,211 -3020,1199 -407,349 -932,854 -1232,1297 -578,855 -179,189 -607,1090 -538,1133 -543,1496 -780,2614 -61,288 -55,462 -68,790 -88,2239 370,3431 1927,4817 1553,1384 4209,2312 6332,1966 230,-38 453,-104 674,-153 586,-128 1267,-440 1712,-846 74,-68 116,-135 189,-211 334,-348 731,-737 971,-1157 157,-276 149,-319 280,-586 327,-668 578,-1847 786,-2609l144 -686c204,-1122 87,-2717 -363,-3630 -575,-1164 -854,-1487 -1865,-2357l-753 -509c-55,-32 -89,-43 -141,-79 -220,-150 -360,-270 -693,-380 -443,-146 -751,-333 -1271,-429 -435,-80 -1018,-261 -1434,-201z"/>
   <path class="fil0" d="M45754 6008c400,-81 330,501 321,954 -16,832 4,1572 -244,2377 -112,362 -324,528 -757,452 -250,-44 -381,-15 -359,-289 65,-821 335,-2572 664,-3246 131,-267 85,-189 375,-248zm-246 -498c-152,17 -317,0 -428,54 -73,36 -202,137 -247,210 -325,541 -589,1592 -684,2202 -227,1469 -454,2113 1233,2322 563,70 1042,-272 1125,-737 44,-246 108,-508 153,-790 38,-235 104,-627 106,-868 5,-648 120,-1161 -27,-1745 -81,-324 -169,-394 -499,-463 -340,-71 -288,-236 -732,-185z"/>
   <path class="fil0" d="M40084 10103c-18,-472 -531,-415 -911,-458 9,-548 92,-1020 119,-1563 255,-17 506,-65 688,-75 214,-11 556,9 497,-276 -86,-415 -998,-162 -1178,-160 46,-153 74,-1190 73,-1398 -2,-211 78,-216 535,-192 237,12 548,33 585,-198 75,-477 -1254,-322 -1663,-183 -134,45 -119,192 -188,590 -35,202 -38,484 -55,700l-195 2130c-54,728 -128,625 117,859 232,220 603,206 928,232 373,30 215,130 648,-8z"/>
   <path class="fil0" d="M42934 9967c-500,-371 -353,-110 -805,-271l-132 -62c-56,-112 -48,-462 -34,-546l23 -537c21,-470 24,-725 118,-1158l420 -1212c240,-376 412,-188 694,-322l19 -203c-54,-28 -323,-161 -341,-165 -490,-119 -842,22 -1092,510 -263,514 -427,1088 -554,1720 -92,462 -135,1690 97,2031 28,42 269,218 323,251 241,146 675,214 949,214 281,0 242,-66 315,-250z"/>
   <path class="fil0" d="M39873 11841c-10,-318 -68,-930 -255,-1070 -280,59 -368,953 -615,1112 -38,-613 202,-1034 -105,-1048 -48,112 -74,1256 -29,1394 272,16 330,-230 405,-438 81,-224 175,-447 257,-653 253,235 52,751 232,1026 376,2 553,-929 836,-1058 13,225 3,1057 47,1154 67,153 -23,48 96,89 207,77 709,-945 737,-1029 310,290 -14,1036 344,1240 356,-104 435,-782 652,-940 43,353 53,672 220,899 170,-51 219,-64 355,-348l242 -533c57,62 21,3 58,86 79,177 -14,238 139,620 253,16 333,-172 435,-350 59,-104 83,-146 141,-257 24,-46 49,-101 74,-142l113 -129c-37,866 246,1399 783,254 45,46 20,7 56,73 41,72 117,472 244,541 295,41 499,-289 604,-495 61,-120 115,-271 165,-409 69,-190 118,-320 -152,-298 -83,254 -209,847 -514,924 -217,-364 -76,-738 -362,-775 -100,78 -165,262 -249,382 -109,159 -162,304 -294,400 -6,-9 -12,-32 -14,-27 -2,5 -11,-21 -14,-27 -56,-153 -47,-332 -51,-493 -7,-235 10,-395 -63,-577 -271,3 -123,58 -379,487 -86,146 -270,449 -323,582 -231,-209 -9,-769 -312,-886 -147,66 -106,79 -150,237 -38,131 -321,717 -428,810 -69,-76 -68,-94 -88,-253 -37,-298 -20,-669 -238,-779 -93,122 -212,406 -279,563 -59,137 -67,192 -129,309 -84,159 -93,196 -217,272 -128,-355 35,-1197 -242,-1399 -133,59 -413,634 -546,845 -171,271 -136,230 -266,281 -9,-332 61,-1119 -128,-1286 -181,51 -301,349 -402,533 -60,110 -104,178 -170,300 -83,154 -121,243 -221,286z"/>
   <path class="fil0" d="M43865 565c23,69 51,104 90,163 360,-145 1111,248 1365,384 207,112 394,204 609,296 217,92 367,210 587,318l812 527c379,273 1046,1007 1307,1405 63,94 98,201 162,309 382,637 595,1121 834,1879 102,325 238,1229 201,1560 -33,283 -46,570 -49,857 -2,293 -109,653 63,778 253,-192 150,-320 174,-816 15,-319 59,-640 59,-974 2,-1075 -379,-2255 -863,-3131 -382,-693 -820,-1323 -1413,-1837 -87,-75 -129,-123 -210,-187l-239 -192c-381,-229 -519,-352 -1006,-621 -360,-200 -722,-336 -1091,-535 -375,-201 -717,-367 -1266,-346 -63,61 -74,85 -126,163z"/>
   <path class="fil0" d="M49360 10287c-14,498 -230,1467 -383,1945 -49,152 -173,357 -250,544 -260,625 -722,1114 -1165,1587 -110,117 -75,84 -213,186 -1055,776 -1558,1329 -3141,1535 -440,57 -37,62 -723,62 -357,-1 -412,-59 -599,104 -14,161 -24,231 153,207 531,-73 646,10 1156,-115 119,-30 315,-24 720,-119l615 -209c932,-438 1238,-748 2009,-1350 1084,-847 1830,-2433 2016,-3833 32,-242 150,-548 -34,-681 -108,36 -90,52 -161,137z"/>
   <path class="fil0" d="M35281 11965c181,-240 -33,-323 -293,-996 -44,-115 -71,-122 -119,-239 -458,-1121 -355,-2462 -138,-3588 83,-434 197,-782 277,-1164 123,-587 549,-1543 896,-2078 432,-666 631,-536 662,-792l-89 -73c-74,24 -141,78 -225,131l-352 366c-177,220 -299,490 -432,721 -745,1296 -1424,4213 -1065,5579 176,667 10,415 335,1181 80,188 123,376 212,547 49,94 97,134 137,225 63,145 21,179 194,180z"/>
   <path class="fil0" d="M38129 1796c1,0 21,143 207,-56 418,-450 938,-713 1580,-848 729,-152 1135,-152 1907,-151 223,0 435,44 633,20 94,-95 140,-162 72,-323l-1284 -9c-1024,-21 -2125,264 -2873,914 -100,87 -315,264 -242,453z"/>
   <path class="fil0" d="M38823 15582l102 -119c-90,-219 -117,-150 -334,-201 -167,-40 -306,-77 -440,-145 -647,-324 -1111,-609 -1592,-1194 -53,-65 -75,-94 -121,-169 -171,-287 -403,-6 -206,207 474,514 1014,1027 1668,1330 204,95 681,297 923,291z"/>
  </g>
  <g id="_530441280">
   <path class="fil0" d="M3887 2568c8,200 -3,400 1,601 4,224 41,302 56,504 58,784 305,1535 688,2204 35,62 77,134 101,183 262,536 1016,1489 1355,2046 485,795 855,963 1494,2300 209,438 656,1245 364,1824 -271,538 -602,888 -1172,1150 -493,227 -1261,426 -1930,434 -1334,15 -2524,-309 -3304,-1346 -793,-1054 -969,-2365 -848,-3725 148,-1659 937,-2869 1828,-3996 225,-284 822,-1069 953,-1358l414 -821zm234 -1563c-35,64 -54,167 -77,238 -164,488 -538,1215 -815,1608 -1026,1450 -1340,1666 -2284,3210 -221,362 -507,1018 -605,1446 -46,201 -72,404 -121,605 -132,546 -120,1915 12,2527 201,926 194,1128 794,1948 580,793 1498,1454 2484,1632 158,29 119,43 215,57 67,9 207,12 315,26 232,32 459,16 696,15 762,-1 1128,-59 1738,-308 299,-121 703,-227 970,-402 145,-94 225,-230 395,-298 322,-129 473,-158 708,-653 313,-660 15,-1427 -277,-2149 -263,-651 -619,-1197 -1016,-1764 -182,-260 -358,-554 -558,-814l-511 -865c-170,-295 25,-151 -233,-343 -5,-4 -42,-38 -43,-38 -146,-93 -143,-112 -294,-348 -233,-366 -516,-827 -648,-1237 -63,-196 -180,-405 -231,-636 -126,-581 -226,-1216 -233,-1837 -2,-267 -49,-399 -59,-613 -24,-518 167,-862 -322,-1007z"/>
   <path class="fil0" d="M3818 13203c60,-367 -116,-253 -618,-657 -1366,-1099 -1782,-3265 -1330,-4899 115,-418 332,-1020 545,-1413 81,-150 264,-260 137,-451 -326,-11 -791,1591 -858,1820 -335,1143 -271,2345 175,3458 163,406 470,974 753,1303 118,136 213,196 343,345 142,162 758,493 853,494z"/>
   <path class="fil0" d="M2506 8526c-209,530 78,2038 549,2757 94,144 153,188 255,322 66,88 168,301 312,209 221,-141 -482,-497 -759,-1433 -62,-209 -251,-1233 -228,-1502 16,-182 107,-346 -129,-353z"/>
  </g>
  <g id="_530442096">
   <path class="fil0" d="M26369 40550c-204,1042 -291,1385 -862,2343 -639,1074 -1789,1931 -3269,2127 -1031,137 -2385,-372 -3094,-1176 -1050,-1192 -1109,-3504 -463,-5097 81,-200 207,-576 305,-746 48,-83 155,-245 212,-329 106,-157 143,-170 252,-291 492,-548 535,-569 1214,-923 557,-291 1046,-408 1707,-464 554,-47 399,149 816,225 304,56 563,144 864,216 769,185 917,409 1342,834 318,319 677,872 825,1315 148,443 255,1430 151,1966zm-4383 -5165c-844,136 -1201,201 -1938,570 -291,145 -508,309 -727,502 -140,123 -193,177 -312,302 -187,196 -421,484 -549,713 -554,986 -888,2347 -857,3512 28,1069 410,2435 1189,3141l324 326c103,117 210,175 330,283 816,738 2168,1122 3246,1021 951,-89 1860,-613 2528,-1195 722,-630 1008,-1212 1372,-2060 323,-754 536,-1455 495,-2312 -46,-968 -406,-2063 -972,-2737 -456,-544 -703,-797 -1290,-1200l-1225 -651c-500,-166 -1086,-300 -1614,-215z"/>
   <path class="fil0" d="M22171 32656c-18,169 -799,1977 -715,2191 101,256 404,145 485,-33l323 -728c89,-175 80,-98 207,-403 42,-99 72,-120 104,-225 107,108 374,996 411,1128 53,191 184,302 379,374 176,65 395,6 432,-121l-612 -1830c-118,-234 -221,-286 -385,-438 -251,-15 -454,-13 -629,85z"/>
   <path class="fil0" d="M24802 35201l6 166c652,550 957,-323 1609,-494 -44,190 -204,645 -291,832 -396,860 332,935 476,559 76,-198 97,-235 178,-405 123,-261 211,-528 340,-816 101,-227 229,-701 -40,-831 -112,-55 -333,-115 -486,-97 -482,55 -1356,792 -1792,1086z"/>
   <path class="fil0" d="M20163 45935c-59,117 -40,1950 19,2259 50,262 255,345 447,325 219,-22 663,-588 804,-771 167,-216 507,-551 695,-893 -175,-175 -55,-226 -629,-220l-514 733c-97,149 -95,183 -221,250 -4,-355 115,-1359 -169,-1574 -107,-82 -291,-187 -432,-109z"/>
   <path class="fil0" d="M14443 41335c153,26 -48,230 424,347 273,67 536,-12 749,-40l752 -10c840,-62 841,-597 -114,-469 -327,44 -622,48 -963,58 46,-119 -13,-38 82,-152 508,-607 1189,-867 1397,-1092 5,-6 12,-14 17,-20l105 -130c-66,-176 -84,-181 -287,-237 -430,-117 -1653,974 -1933,1393 -90,134 -163,241 -229,352z"/>
   <path class="fil0" d="M18992 45922c-40,-84 -44,-357 -566,-341 -174,6 -493,203 -698,256 33,-168 88,-308 111,-483 60,-439 610,-977 -316,-1013l-55 93c-207,435 -644,1625 -403,1962 282,395 931,25 1219,-99 70,-30 169,-84 249,-115 105,-41 255,-78 373,-168l86 -92z"/>
   <path class="fil0" d="M27910 40732c50,184 -18,358 446,511 249,82 519,145 736,244 -107,197 -404,283 -608,412 -383,240 -517,188 -648,356 121,676 731,349 1105,133 194,-112 404,-223 589,-351 114,-78 167,-118 280,-188l314 -154c13,-237 -94,-294 -357,-449l-1205 -448c-209,-59 -534,-160 -652,-66z"/>
   <path class="fil0" d="M26947 43611l-8 228c142,125 328,409 433,634 62,135 98,258 150,390 67,170 121,244 148,438 -309,-56 -868,-369 -1182,-482l-344 -90c-140,-5 -24,-16 -72,34 -177,172 162,406 312,475l1300 507c449,147 228,239 646,170 49,-85 59,-83 100,-161 23,-195 -437,-1334 -588,-1573 -48,-76 -80,-142 -139,-223l-44 -60c-48,-126 65,-19 -30,-151l-39 108 -107 -109c-107,-71 -368,-158 -536,-135z"/>
   <path class="fil0" d="M15134 43839c61,242 135,359 383,407 366,71 1277,-272 1595,-351 257,-64 102,-10 291,-129l12 -148c-391,-330 -1010,22 -1457,89 46,-115 46,-107 120,-194l383 -484c842,-1023 415,-617 288,-904 -10,4 -24,0 -29,11 -5,12 -22,9 -29,11 -36,10 -52,12 -86,23 -238,76 -497,465 -744,729 -172,184 -642,711 -727,940z"/>
   <path class="fil0" d="M27228 37566c58,297 287,263 621,356 215,60 571,87 895,89 -136,426 -1117,815 -840,1157 62,76 201,160 335,127 155,-38 239,-128 331,-205l434 -364c51,-45 95,-88 147,-138l390 -371c96,-67 106,-19 143,-143 78,-271 -365,-421 -567,-470 -577,-138 -515,-83 -968,-126 -387,-37 -604,-95 -921,88z"/>
   <path class="fil0" d="M19035 35588l103 -133c-28,-312 -229,-999 -179,-1529 168,57 245,193 361,309l491 486c77,66 86,100 150,175 122,141 251,168 405,81 9,-213 -414,-681 -532,-785 -363,-319 29,-162 -734,-639 -552,-345 -411,-78 -658,-178 -184,181 -165,227 -141,596 17,257 141,1137 223,1352 110,286 192,240 511,265z"/>
   <path class="fil0" d="M15340 36791c50,381 421,994 683,1321 380,475 370,474 778,481 49,-73 54,-58 105,-140 -93,-427 -732,-668 -816,-1281 476,7 1552,250 1689,-200 -5,-306 -834,-236 -1085,-237 -357,-1 -1127,-127 -1354,56z"/>
   <path class="fil0" d="M24541 47207c-279,-111 -343,-252 -525,-428 -146,-142 -450,-240 -577,-247 -215,-11 -108,239 -18,337 175,190 598,526 820,658 802,475 936,439 939,-400 1,-265 -23,-708 26,-953 69,-337 -35,-481 -354,-550 -218,-46 -307,-3 -308,563 -1,336 4,686 -3,1020z"/>
   <path class="fil0" d="M24713 42787c149,-11 160,-62 219,-175 162,-309 320,-463 446,-818 215,-606 294,-587 302,-1353 8,-778 -69,-782 -257,-1397 -97,-318 -374,-996 -635,-1051 -271,275 40,223 350,1055 237,635 411,1364 262,2073 -53,254 -325,872 -514,1150 -110,160 -288,329 -173,516z"/>
   <path class="fil0" d="M23492 42492c87,-13 55,37 201,-180l412 -853c80,-155 193,-422 223,-599 31,-190 -10,-578 -128,-665 -243,-178 -92,395 -82,497 27,282 -62,492 -162,685 -103,199 -527,933 -464,1115z"/>
  </g>
  <g id="_530445096">
   <path class="fil0" d="M21419 13160c405,-125 553,-454 695,-566 716,240 1203,447 2102,365 211,-19 351,-28 548,-67 306,-62 905,-243 1117,-470 166,-178 110,-219 73,-273 -279,-409 -487,166 -1643,296l-797 8c-552,-87 -883,-312 -1195,-218 48,-251 293,-497 382,-783 104,-337 214,-415 516,-649 827,-643 1940,83 4055,-573 585,-182 1156,-498 1642,-716 -274,547 -301,643 -529,1214 -176,440 -338,834 -526,1247 -548,1205 -1075,1836 -2149,2268 -165,67 -451,181 -644,224l-1072 164c-799,18 -1157,-80 -1795,-458 -314,-186 -761,-612 -780,-1013zm140 -1014c-41,49 -19,28 -60,65l-262 -222c-372,-389 -714,-600 -1078,-1129l-1198 -1439c-212,-249 -62,-178 -379,-487l-564 -775c-88,-96 -163,-96 -246,-188 -122,-136 -333,-553 -502,-800l-449 -852c-314,-493 -343,-723 -596,-1176 -90,-160 -436,-1137 -450,-1312 155,63 205,119 321,215l831 613c1007,676 2859,1332 3782,2038 989,756 1137,1221 1427,2446 122,515 114,1257 -1,1767 -83,369 -132,418 -268,711 -49,106 -97,221 -156,317l-152 208zm-6451 -8337c201,454 412,1294 768,2014 654,1320 1190,2277 2122,3442 82,103 136,163 192,281 110,233 1297,1565 1484,1764 179,191 311,297 482,459l502 437c114,107 436,336 490,467 -789,450 -796,343 -1533,498 -327,68 -517,-37 -809,-121 -900,-259 -1286,-188 -2232,-878 -282,-206 -684,-911 -841,-1225 -425,-854 -685,-2398 -753,-3339 -50,-702 -1,-1213 11,-1917l67 -1451c43,-246 14,-300 32,-384 1,-6 7,-19 8,-24 1,-4 4,-17 10,-23zm-185 -1007c-514,1157 -508,1521 -532,2853 -7,360 -117,705 -69,1076 41,321 21,707 61,1054 85,753 94,1228 328,1952 100,309 151,614 265,892 100,244 215,537 369,747 513,698 716,1252 1782,1648 1175,435 1139,365 2214,599 174,38 341,31 479,-4 163,-42 348,-30 522,-58 190,-31 318,-81 470,-111 183,256 226,454 478,651 125,98 183,186 302,278 585,454 1341,730 2112,745 840,17 1699,-116 2374,-449 129,-64 287,-94 419,-159 101,-49 79,-58 181,-109 582,-292 981,-639 1341,-1218 47,-76 52,-118 102,-188 399,-560 559,-1040 852,-1712 53,-120 100,-270 134,-405 45,-176 110,-260 165,-417 167,-478 132,-395 358,-799l364 -792c75,-204 110,-199 254,-328 105,-95 193,-166 229,-327 -82,-96 -172,-306 -307,-304 -173,2 -824,647 -1097,833 -1083,740 -2565,1350 -3887,1336 -468,-6 -1638,-60 -2045,211 -149,99 -58,70 -252,151 9,-556 36,-725 -78,-1304 -127,-647 -278,-1261 -680,-1809 -142,-194 -304,-339 -469,-506 -176,-178 -319,-320 -529,-481 -198,-152 -370,-238 -599,-377 -412,-252 -1560,-826 -1969,-994 -216,-88 -442,-199 -651,-326 -644,-390 -577,-242 -1215,-772 -215,-178 -210,-118 -568,-446 -240,-221 -406,-643 -788,-687 -100,-12 -286,46 -420,56z"/>
   <path class="fil0" d="M24679 8223c-246,-65 -632,-428 -798,-577 -912,-823 -924,-2005 -573,-3143 67,-217 146,-296 203,-481 261,-835 868,-1360 1493,-1910 162,-142 568,-520 722,-612 -35,410 -39,820 1,1232 47,484 104,636 251,1012l349 955c405,818 369,1011 621,1620 267,645 290,646 111,1240 -27,92 -156,369 -206,449 -213,339 -998,453 -1453,428 -35,-83 -57,-230 -88,-345l-238 -632c-142,-365 -257,-493 -204,-997 78,-748 -106,-661 187,-1872l182 -649c157,-476 -56,-844 -306,-807 -169,64 -238,323 -318,501 -258,579 -427,1277 -472,1948 -18,257 -42,516 -29,796 27,583 552,1717 565,1844zm1338 -8223c-245,316 -31,706 -1104,1552 -1113,877 -2295,2329 -2369,3885 -45,960 37,1280 595,2086 57,82 134,195 187,244 90,83 154,142 243,227 804,756 1431,1004 2627,930 349,-22 957,-285 1188,-599 192,-260 427,-1158 371,-1342 -35,-116 -80,-179 -121,-311 -190,-610 -397,-1102 -587,-1658 -78,-226 -198,-363 -285,-618 -79,-234 -143,-447 -226,-678 -358,-1006 -266,-1752 -165,-2798 19,-201 86,-197 -11,-380 -162,-310 -64,-175 -108,-331 -4,-15 -60,-107 -81,-132 -58,-71 -37,-64 -154,-77z"/>
   <path class="fil0" d="M26053 7987c147,-119 349,-471 411,-724 147,-598 -110,-1302 -349,-1818 -134,-288 -240,-518 -441,-636 -198,258 27,298 202,738 105,263 251,551 318,801 367,1371 -643,1414 -141,1639z"/>
   <path class="fil0" d="M19625 9835c152,-7 150,-75 191,-218 35,-120 75,-228 83,-348l-111 -36c34,-459 272,-1332 -96,-1398 -97,148 -13,267 1,427 38,433 -224,1312 -68,1573z"/>
   <path class="fil0" d="M20343 10360c225,-87 108,-194 105,-439 -3,-221 24,-362 49,-561 43,-351 174,-1001 -118,-1030 -105,162 -13,224 -16,469 -2,192 -33,367 -56,568 -22,186 -24,391 -50,572 -31,221 -107,337 86,421z"/>
   <path class="fil0" d="M17173 10538l8 190c221,57 522,-17 738,-23 333,-9 410,73 649,-63 -63,-348 -270,-220 -610,-214 -246,5 -605,32 -785,110z"/>
   <path class="fil0" d="M17994 10027c47,-103 -19,-166 -73,-265 -255,-10 -485,5 -737,-43 -105,-20 -657,-118 -471,174 46,72 1079,228 1216,176 58,-22 32,-14 65,-42z"/>
   <path class="fil0" d="M18046 11298c-147,26 -278,-45 -320,86 -43,134 38,187 152,188 158,1 563,-38 737,-56 266,-28 530,-236 180,-261 -241,-18 -540,6 -749,43z"/>
   <path class="fil0" d="M16382 8920l-8 198c124,85 437,97 608,147 170,51 481,191 502,-104 -186,-190 -1035,-275 -1102,-241z"/>
   <path class="fil0" d="M19007 8975c243,-91 141,-337 189,-630 38,-237 163,-516 -10,-623 -159,93 -76,183 -163,616 -50,245 -113,441 -16,637z"/>
  </g>
  <g id="_530447208">
   <path class="fil0" d="M36217 60600c1210,288 1854,111 3004,67 500,-19 732,-90 978,-106 111,1295 23,2593 275,3817 127,621 203,1103 386,1670l491 1527c-603,54 -1519,-95 -2635,46 -303,38 -2278,189 -2475,256l208 -431c67,-89 194,-228 273,-307 411,-417 99,-165 353,-548 52,-78 57,-120 100,-191 414,-693 1231,-426 1810,-471 105,-124 164,-297 288,-433 90,-100 256,-206 261,-398 -404,-13 -405,366 -602,534 -8,5 -447,148 -543,-80 -4,-9 -7,-18 -10,-26 -133,-387 176,-829 -162,-721 -87,215 -25,593 -38,860 -415,12 -361,-20 -654,150 -153,89 -347,281 -471,318 -48,-103 -82,-227 -143,-334 -78,-135 -138,-172 -187,-281 90,-312 694,-851 707,-1084 11,-183 -207,-677 -304,-1028 -74,-270 -25,-140 26,-302 -181,-49 -36,-56 -209,-112 -212,171 -70,387 8,642 283,928 368,724 -79,1342 -311,429 -523,564 -265,842 675,730 -103,1210 -287,1461 -69,93 -120,169 -184,282l-170 289 -1186 45c-15,-180 723,-2059 836,-2434 84,-278 163,-559 238,-845 82,-310 104,-648 165,-955l122 -963c33,-442 104,-1717 75,-2098zm4971 2008c244,5 423,-36 696,-12 507,46 991,-135 1892,-81 20,1557 -64,2586 477,4118 177,504 438,985 474,1102 -487,-3 -2192,-13 -2507,-138 -80,-57 -142,-433 -185,-599 -163,-640 -387,-1172 -499,-1746 -61,-317 -301,-1652 -297,-1937 3,-274 -19,-442 -51,-707zm-1193 -5926c-355,-482 -470,-1456 -52,-1938 632,6 1020,272 1330,735 265,395 643,388 808,246 180,-155 18,-303 -64,-414 -121,-162 -173,-232 -305,-380 -184,-208 -269,-225 -323,-331 470,-468 1489,-439 1331,963 -49,435 -76,910 -59,1354 31,791 163,964 175,1193 -94,-70 -144,-117 -233,-203 -1213,-1176 -2307,-817 -2608,-1225zm-2685 3521c123,-512 82,-137 51,-756 -13,-256 6,-534 5,-833 -4,-1211 317,-3353 1678,-3723 -53,1026 -126,1954 937,2417 260,113 588,155 891,226 571,135 1050,567 1416,866 302,245 243,-37 711,448 119,124 220,140 449,114 557,-64 211,-445 113,-1075 -40,-261 -84,-757 -85,-1007 -3,-509 271,-1427 46,-1991 -178,-445 -680,-891 -1164,-995 -1152,-249 -1504,414 -1619,457 -211,3 -339,-77 -542,-92 -248,-18 -367,9 -578,29 -1027,98 -1794,608 -2275,1509 -690,1292 -655,2964 -526,4384 -245,-4 -426,-68 -634,-67 -179,0 -159,41 -299,-2 -86,-26 -92,-56 -160,-9 -150,132 -237,1815 -308,2183 -80,420 -270,1859 -368,2129 -110,306 -199,648 -293,965l-469 1417c-137,439 -291,696 -349,877 -80,252 114,128 -21,445 248,201 77,239 510,304 420,63 1035,-22 1469,-35 786,-24 795,-46 1516,-103 220,-17 518,-27 729,-59 1360,-200 3302,-172 4655,-66 507,40 972,107 1521,101 618,-7 1106,130 1426,-119 3,-148 4,-165 -56,-274l-335 -678c-200,-436 -572,-1717 -589,-2177 -16,-436 -94,-793 -104,-1232 -6,-240 -56,-376 -80,-585 -26,-233 -31,-406 -63,-637 -23,-167 -163,-301 -269,-409 -116,-117 -304,-150 -508,-164 -754,-54 -889,44 -1300,60 -296,11 -1056,102 -1250,60 -36,-75 -181,-1153 -315,-1537 -85,-244 -91,-165 -109,-462 -574,-411 -835,-155 -1150,-78 -155,38 -258,69 -428,80 -336,20 -645,19 -978,34 -334,14 -590,63 -899,60z"/>
   <path class="fil0" d="M43288 67017l125 6c164,-316 -240,-713 -328,-1761 -44,-516 -75,-1094 -43,-1625 9,-157 114,-425 -62,-427 -199,-3 -149,643 -167,937 -43,710 65,1777 315,2453l160 417z"/>
   <path class="fil0" d="M42366 63421l-110 12c-39,75 -136,1129 113,1132 163,2 36,-328 27,-492 -11,-209 40,-499 -30,-652z"/>
  </g>
  <g id="_530421648">
   <path class="fil0" d="M17512 59250c5,-257 -16,-536 17,-780 13,-93 39,-262 43,-351 4,-86 -14,-225 -15,-353 -3,-524 -36,-1050 -21,-1572 593,88 1025,308 1657,298 173,665 180,1455 216,2193 -173,44 -316,66 -497,120l-1400 445zm1936 -2767c604,28 1193,-14 1754,-59 551,-44 1086,-91 1593,-136 1054,-94 2202,-401 3284,-292 559,56 847,325 1087,726 230,385 354,858 365,1404l11 1802c125,734 580,879 609,1164 -532,-75 -369,-139 -1123,-29l-1180 49c100,-331 336,-516 218,-947 -163,-593 -308,-1083 -1064,-1350 -1018,-360 -2127,-378 -3220,-384 -1001,-6 -1724,195 -2168,201 -12,-203 -1,-382 -4,-579 -6,-501 -145,-1204 -162,-1570zm2636 -2020c4,233 6,468 8,702 2,248 57,360 53,649 -553,25 -3087,236 -3523,126 -103,-26 -153,-49 -276,-74 -128,-27 -192,-81 -288,-97 -643,-113 -183,-103 -1141,-196 -115,228 -29,907 -36,1216 -8,435 29,896 -23,1320 -44,359 -144,1265 170,1443 280,160 339,530 882,225 245,-138 67,20 230,-90 199,-136 1184,-418 1473,-483 779,-173 1544,-255 2422,-265 808,-9 2919,-22 3268,766 169,382 218,706 -52,1023 -268,317 -193,561 202,771 330,175 780,130 1172,102 217,-16 441,12 652,-3 242,-16 376,-62 651,-43 175,11 453,73 635,17 57,-17 326,-252 364,-301 -72,-448 -543,-708 -640,-866 -98,-158 -48,-1211 -50,-1483 -7,-984 -128,-1854 -591,-2467 -228,-302 -459,-538 -803,-712 -687,-349 -1984,-302 -2779,-199 -390,51 -958,187 -1342,199 7,-228 59,-472 53,-647 -7,-177 -18,-461 17,-690 326,-4 669,-64 977,-82 444,-25 250,144 786,307 138,42 724,-80 872,-130 482,-163 318,-732 -36,-954 -344,-215 -950,-93 -1309,18 -323,99 -1554,170 -1975,168 -167,-1 -309,34 -439,50 -172,21 -364,7 -537,10 -233,4 -736,-98 -926,-152 -286,-82 -1427,-25 -1332,717 99,770 934,567 1392,366 564,-247 1227,-246 1819,-261z"/>
   <path class="fil0" d="M26661 62680l-314 1203c-113,281 -219,474 -293,823 -30,143 -61,207 -107,330 -80,214 -222,886 -199,1094 35,317 144,427 304,594 388,405 298,221 667,412 390,202 583,90 694,80 92,-8 170,50 431,-171 581,-489 437,-871 413,-1291 -21,-352 -47,-461 -171,-743l-584 -1188c-93,-187 -152,-419 -237,-629l-99 -334c-36,-81 -150,-162 -216,-234 -108,0 -213,10 -289,54z"/>
   <path class="fil0" d="M26787 58543c320,-81 21,-1087 -82,-1332 -356,-846 -1447,-843 -1213,-448 92,155 470,-162 871,397 167,232 203,334 273,638 106,466 1,562 151,745z"/>
   <path class="fil0" d="M20427 58253c122,-11 188,-88 210,-218 40,-230 -84,-7 -45,-403 34,-349 111,-748 -111,-790 -90,153 -87,1196 -54,1411z"/>
   <path class="fil0" d="M21046 58178c211,14 160,-140 151,-341 -4,-93 -1,-177 -19,-267 -27,-130 -27,-130 -119,-167 -101,176 -31,553 -13,775z"/>
  </g>
  <g id="_1607156776">
   <path class="fil0" d="M40184 31899c276,-94 1334,-115 1703,-129 -37,515 -73,1271 -176,1741 -211,955 -178,989 -911,1010 -1018,29 -977,111 -836,-934l190 -1263c69,-258 -16,-326 30,-425zm-952 -4797c767,-13 939,-75 1736,-56 121,3 354,-10 532,-31 790,-95 1559,-85 2358,-143 41,173 639,1197 766,1368 144,192 630,1136 670,1472 163,1401 -1618,1476 -2796,1520 -913,35 -1840,74 -2709,185 -401,51 -898,65 -1306,107 -767,79 -1892,226 -2556,-190 -663,-416 -321,-877 82,-1315 65,-71 103,-115 177,-184 565,-522 975,-1208 1436,-1815 48,-64 123,-151 158,-204 110,-164 23,-241 231,-492l121 -168c4,-7 11,-19 14,-25 3,-5 9,-17 14,-24l797 -3c-83,230 -418,585 -570,811 -210,313 -838,1347 -1021,1723 -81,167 -117,328 -185,503 -37,94 -207,509 7,412 106,-48 295,-655 435,-941 197,-402 1028,-1749 1322,-2114 86,-107 223,-272 287,-396zm-1756 -1076c55,-228 210,-645 325,-860l444 -752c141,-225 338,-501 453,-736 76,-156 104,-248 188,-393 535,-932 271,-759 914,-862 314,-50 755,-67 1070,-90 604,-44 1518,170 2170,-41l855 1147c154,198 312,365 453,558l408 567c229,318 689,943 302,1385 -326,371 -963,350 -1583,370 -337,10 -657,37 -977,43 -345,6 -619,49 -904,58 -334,11 -607,32 -932,54 -267,18 -631,10 -934,46l-1929 51c-402,2 -1540,75 -1808,-144 18,-477 596,-1109 889,-1535l912 -1510c65,-83 105,-146 180,-219 359,-352 313,-400 514,-682 183,30 334,9 577,2 -146,426 -369,665 -478,891 -209,434 -189,441 -496,882 -197,285 -325,588 -519,855 -107,147 -122,305 -202,482 -85,191 -121,370 108,433zm1480 -4930c212,-64 165,-151 251,-345 211,-476 577,-1023 875,-1439 100,-139 158,-201 257,-323 177,-218 319,-421 491,-664 166,-234 173,-305 296,-326 255,-41 612,318 738,421 1331,1084 1022,1245 1834,2251 83,103 222,198 145,369 -133,294 -471,393 -665,504 -262,149 -104,61 -400,101 -1157,152 -2140,-45 -3372,107 -636,79 -1474,209 -2086,100 17,-239 101,-526 209,-718 111,-199 659,-824 828,-983 422,-400 1067,-884 1324,-1135 333,-324 127,-166 576,-544 88,-75 129,-151 211,-222 74,-66 176,-124 263,-175 -62,186 -606,887 -783,1099 -119,143 -134,225 -240,376 -81,114 -175,228 -266,348 -106,139 -126,246 -222,393 -81,123 -149,232 -209,402l-81 212c-41,112 -39,107 26,191zm-1150 1381c-54,99 -51,87 -139,165 -56,51 -96,79 -156,134 -312,284 -1150,1602 -1446,2057 -322,495 -1075,1450 -356,1945 681,469 1053,299 1947,335 -57,208 -216,243 -360,399 -484,525 -833,1086 -1173,1466 -372,416 -1097,993 -1127,1565 -23,444 149,759 500,1003 672,466 1620,640 2456,556 495,-49 939,-116 1454,-134 -31,184 -69,358 -81,565 -19,331 -259,1036 -134,1687 221,1156 2304,868 2779,636 297,-145 327,-388 378,-914 19,-205 66,-332 109,-505 41,-161 23,-409 69,-580 64,-235 25,-366 43,-614 8,-109 53,-184 47,-243 -6,-61 -53,-136 -67,-275 743,1 1538,-88 2197,-235 223,-49 536,-193 708,-340l105 -113c6,-5 15,-11 20,-16l113 -99c450,-607 329,-972 98,-1649 -228,-671 -1206,-2103 -1290,-2434 313,-22 620,-57 853,-199 984,-601 403,-1528 2,-2136 -145,-221 -272,-419 -442,-604l-486 -601c-157,-208 -525,-823 -672,-952 -66,-58 -85,-30 -173,-78 -113,-61 -126,-101 -156,-154 403,-119 834,-362 1076,-661 68,-85 33,-49 117,-126 150,-289 -505,-1001 -647,-1224 -442,-697 -622,-1065 -1245,-1607 -176,-153 -336,-300 -517,-458 -82,-72 -183,-138 -274,-196 -1437,-919 -2054,194 -2654,632 -131,95 -207,179 -334,280l-1051 901c-115,114 -177,232 -279,335 -75,77 -95,58 -172,152l-417 517c-35,67 -55,153 -95,233 -97,192 -210,490 -208,724 2,198 111,306 202,440 278,412 411,278 878,420z"/>
   <path class="fil0" d="M38724 29582c213,40 259,-245 324,-419 143,-384 285,-719 490,-1070 198,-339 225,-379 100,-498 -172,56 -953,1781 -914,1987z"/>
   <path class="fil0" d="M38992 24757c221,-30 192,-214 283,-396 186,-377 719,-1218 706,-1383 -212,-36 -248,194 -330,344 -145,265 -765,1164 -659,1435z"/>
   <path class="fil0" d="M39759 24569c124,-67 100,-118 140,-263 26,-93 68,-173 59,-264 -7,-68 -12,-47 -27,-76 -101,40 -44,-12 -114,103 -99,163 -139,328 -58,500z"/>
  </g>
  <g id="_1607158552">
   <path class="fil0" d="M19053 22639c271,11 331,-15 613,-74 205,-42 455,-68 662,-94 388,-49 3005,-92 3642,-101 222,-3 501,-64 684,-51 32,756 171,1567 94,2323 -105,1041 267,2143 -40,3397 -83,340 -198,603 -484,715 -462,181 -1696,201 -2244,175 -700,-33 -1487,-136 -2193,-257 -945,-161 -977,-422 -985,-1439 -7,-796 2,-1593 40,-2385 35,-752 130,-1501 211,-2209zm-638 -495c-37,335 -121,686 -148,1075l-97 1171c-130,1042 -169,2654 45,3681 167,802 857,1015 1551,1120 403,61 745,121 1151,181 383,56 824,79 1209,91 671,22 2303,54 2829,-414 347,-309 495,-1031 491,-1493 -1,-116 -33,-193 -38,-287 -35,-674 14,-1567 -46,-2313 -22,-269 41,-383 46,-615 17,-719 -118,-1799 -73,-2422l-154 -159c-249,33 -544,-5 -852,-5 -244,1 -589,45 -865,67l-1736 34c-966,7 -1600,33 -2533,245 -796,182 -315,-48 -780,43z"/>
   <path class="fil0" d="M19078 20487c65,-366 259,-615 470,-891 281,-370 254,-417 847,-495 960,-128 1290,141 1314,-1355 277,-73 312,-154 685,-173 -14,300 -58,548 264,884 493,514 1264,112 1565,754 120,255 196,681 189,1013l-2792 4 -2542 259zm3064 -3334c-383,71 -735,156 -973,376 -229,211 -135,717 -221,933 -39,97 -28,75 -89,104 -25,12 -513,66 -577,71 -568,44 -1018,265 -1309,743 -152,250 -368,546 -414,914 -139,1116 638,726 1722,641 235,-19 418,-6 649,-38 201,-28 403,-50 605,-81 279,-43 989,-65 1276,-51 395,21 871,13 1302,9 370,-3 940,31 1035,-271 83,-261 -25,-932 -108,-1180 -110,-329 -351,-567 -587,-742 -268,-200 -675,-187 -1066,-270 -207,-44 -295,-106 -341,-320 -52,-242 87,-429 76,-545 -34,-352 -652,-354 -980,-293z"/>
   <path class="fil0" d="M19918 23177c-158,736 -80,2152 -30,2969 32,527 17,977 6,1519 -4,241 -22,505 198,585 165,60 440,-15 506,-156 98,-209 112,-1704 102,-2164l-18 -1482c7,-431 135,-1128 -160,-1285 -206,-109 -435,-75 -604,14z"/>
   <path class="fil0" d="M22583 23203c-130,103 -78,228 -80,632l30 2240c6,500 45,959 35,1482 -5,232 -50,520 107,641 153,119 455,99 563,-34 177,-218 158,-2353 152,-2848 -5,-430 -32,-1018 -89,-1431 -39,-281 54,-488 -138,-618 -129,-88 -421,-191 -580,-64z"/>
   <path class="fil0" d="M19821 20171c147,-8 214,-144 238,-254l96 -366c-59,-50 -55,-66 -164,-81 -70,118 -67,219 -125,368 -50,127 -118,191 -45,333z"/>
   <path class="fil0" d="M20367 20064c134,-48 116,-92 167,-239 46,-133 100,-167 1,-277 -181,35 -230,333 -168,516z"/>
  </g>
 </g>
</svg>
