<?xml version="1.0" encoding="UTF-8"?>
<svg viewBox="0 0 195 135" xmlns="http://www.w3.org/2000/svg" xmlns:xlink="http://www.w3.org/1999/xlink">
 <defs>
  <linearGradient id="m" x1=".43066" x2="2.0333" y1="1.4627" y2="-.85416" xlink:href="#a"/>
  <linearGradient id="p" x1=".36916" x2=".40409" y1="-.11718" y2=".46877">
   <stop stop-color="#ddd" offset="0"/>
   <stop stop-color="#fff" offset="1"/>
  </linearGradient>
  <linearGradient id="r" x1=".58038" x2=".79019" y1=".10134" y2=".44444" xlink:href="#a"/>
  <linearGradient id="t" x1=".45802" x2=".99978" y1=".53672" y2=".53672" spreadMethod="reflect" xlink:href="#b"/>
  <linearGradient id="s" x1=".152" x2=".7175" y1="1.1087" y2="-.64583" xlink:href="#a"/>
  <linearGradient id="q" x1=".39964" x2=".53302" y1=".35986" y2=".79134" spreadMethod="reflect" xlink:href="#b"/>
  <linearGradient id="o" x1=".47925" x2=".40112" y1=".23314" y2=".61167" spreadMethod="reflect" xlink:href="#b"/>
  <linearGradient id="a">
   <stop stop-color="#000409" offset="0"/>
   <stop stop-color="#000409" stop-opacity="0" offset="1"/>
  </linearGradient>
  <linearGradient id="n" x1=".39097" x2=".21355" y1=".048096" y2=".69178" xlink:href="#a"/>
  <linearGradient id="b">
   <stop stop-color="#fff" offset="0"/>
   <stop stop-color="#fff" stop-opacity="0" offset="1"/>
  </linearGradient>
  <radialGradient id="v" cx="56.758" cy="178.72" r="54.056" gradientTransform="matrix(.97591 -.010641 -.016026 .17286 -322.68 47.615)" gradientUnits="userSpaceOnUse" xlink:href="#a"/>
  <radialGradient id="u" cx="56.758" cy="178.72" r="54.056" gradientTransform="matrix(1.6378 0 0 .50599 -151.43 167.24)" gradientUnits="userSpaceOnUse" xlink:href="#a"/>
 </defs>
 <g stroke-linecap="round" stroke-linejoin="round" stroke-opacity=".594" stroke-width="1.25">
  <path d="m177.07 103.67c0 15.106-39.638 27.352-88.533 27.352-48.896 0-88.533-12.246-88.533-27.352s39.638-27.352 88.533-27.352c48.896 0 88.533 12.246 88.533 27.352z" fill="url(#u)"/>
  <path d="m163.6 124.33c-0.47844 5.1607-24.485 9.6018-53.62 9.9194-29.135 0.31767-52.366-3.6084-51.887-8.769 0.47843-5.1607 24.485-9.6018 53.62-9.9194 29.135-0.31768 52.366 3.6084 51.887 8.769z" fill="url(#v)" opacity=".275"/>
 </g>
 <g fill-rule="evenodd">
  <path d="m13.612 31.851l6.5717 64.803c0.084829 1.4421 0.67862 4.1565 2.5448 4.8352l83.8 30.658c2.8841 1.4421 7.7593 0.84827 10.134-0.25449l56.719-31.93c2.5448-1.1028 4.3262-2.969 4.5807-5.5986l7.3351-61.076c0.42413-3.8023 3.9021-2.2605 4.3262-5.5538l0.8907-8.0162c0.16965-1.0603-0.9331-2.2479-2.4176-2.6721l-107.96-14.461c-2.1631-0.5938-5.0448-0.55138-7.0807-1e-5l-61.614 13.577c-1.6117 0.50897-2.7145 2.0359-2.5448 3.0538v7.6345c0.38413 2.6995 3.5676 1.0281 4.7151 5z" fill="#007f00" stroke="#00287b" stroke-width=".312"/>
  <path d="m20.153 16.737l93.59 20.005 67.319-18.163-104.01-14.396-56.9 12.554z" fill="url(#s)" opacity=".597" stroke="url(#o)" stroke-linejoin="round" stroke-opacity=".594" stroke-width="1.25"/>
  <g stroke-width=".312">
   <path d="m13.563 29.797l95.284 23.418 1.2543 76.086-90.991-52.061-5.5474-47.444z" fill="url(#n)" opacity=".351"/>
   <path d="m32.31 48.943c-0.30348 0.046719-0.60113 0.17931-0.87915 0.4375l-3.1207 6.125 7.1106 8.0938 3.0977-6.5312c-1.4306-3.9752-4.0842-8.4521-6.2085-8.125zm1.9313 0.1875c1.8882 1.4677 3.1565 3.7914 4.2898 6.625l3.0523 7.6562-1.8708 0.9687 7.1647 2.875 3.2498-7.0312-2.1541 0.7188-1.7918-4.5312c-0.57526-1.6833-2.0676-3.5756-3.3147-4l-8.6251-3.2812zm-10.785 9.3438l2.248 3.0312-1.6666 4.375c-0.83661 1.9778 1.0054 4.9323 2.1335 6.1562 1.1106 1.205 2.7694 1.9567 4.3063 2.5312l2.3874-5.0625 2.1876 2.3438-4.2211-10.562-7.3751-2.8125zm28 10.781l-6.327 2.9375 3.7669 9.5c3.2079 1.5127 7.0712 1.4556 6.0708-3.2188l-3.5107-9.2188zm-26.931 1.2188l5.1753 13.031c1.0009 1.9202 2.7497 2.9592 4.5105 3.5938l4.7188 1.875-0.644-10.688-9.0147-3.625c-1.3879-0.43287-3.2188-1.5332-4.7459-4.1875zm19.417 6.875l-2.9706 7.25 4.069 10.125-0.1188-3.4688 3.2021 1.2812c1.1839 0.60152 2.6501 0.11015 3.1187-1.2188l3.4727-8.875c-1.2463 1.3384-2.9671 1.1348-4.9854 0.34375l-5.4396-2.125-0.348-3.3125z" fill="url(#p)"/>
  </g>
 </g>
 <path d="m68.64 67.348l0.2675-2.8585c0.048325-0.49204-0.3277-1.0174-0.47646-1.1217-0.24808-0.15688-0.43895-0.004601-0.39523 0.55441l0.2522 3.2996 0.3519 0.1262m1.8983 0.6807l0.2675-2.8585c0.048325-0.49205-0.3277-1.0174-0.47644-1.1217-0.24809-0.1569-0.43896-0.004601-0.39524 0.55442l0.2522 3.2995 0.3519 0.1262m5.4686 1.7913l2.0473 8.7484 0.2133 0.0765 1.4072-9.9885c0.034836-0.2422 0.16119-0.68929 0.6091-0.52866l-0.0606-0.3273-1.9197-0.6884 0.0606 0.3274c0.17063 0.061188 1.007 0.27621 0.86768 1.245l-1.0089 6.9223-1.7769-7.7175c-0.29626-1.2778 0.25439-1.0464 0.585-0.92784l-0.0606-0.3273-2.4742-0.8873 0.0606 0.3273c0.20262 0.07267 0.66008 0.33859 0.86094 1.2086l0.3198 1.4051-0.7601 5.7381-1.7628-7.6955c-0.29624-1.2778 0.2544-1.0464 0.58501-0.92783l-0.0606-0.3274-2.4742-0.8873 0.0606 0.3273c0.20263 0.072662 0.64942 0.33475 0.86095 1.2086l2.6791 11.301 0.224 0.0803 0.9175-7.6852m9.1815 9.7446c-0.14542 0.23651-0.39635 0.3333-0.62537 0.387-0.22903 0.053696-0.70164-0.13276-1.1344-0.69544-0.3693-0.489-0.65378-1.5419-0.69296-2.5067 0.51417-0.019371 1.117 0.010048 1.6627-0.2697 0.44515-0.2309 0.7253-0.70773 0.76751-1.6095 0.043335-1.0032-0.56448-1.8664-1.2257-2.1035-1.1518-0.41304-2.3532 1.3804-2.0908 4.0893 0.13457 1.3726 0.71316 2.6159 1.2037 3.1144 0.67408 0.68319 1.1136 0.63706 1.3387 0.6159 0.5894-0.043327 1.125-1.0228 1.1727-1.1415 0.055031-0.13308-0.056076-0.41064-0.13974-0.27085l-0.2363 0.3907m-2.4341-3.199c-0.017288-1.008 0.010841-1.6092 0.33146-2.5129 0.12915-0.37817 0.36044-0.63481 0.55747-0.69998 0.29022-0.099693 0.58713 0.1596 0.72457 0.95598 0.17783 1.0146-0.09063 2.3616-1.6135 2.2569m-18.501 8.2222l0.7241 0.3615 2.3625 6.4164 1.5571 0.5584-0.0606-0.3273c-0.17064-0.061188-0.68029-0.44772-0.8363-0.86022l-2.0937-5.5559c0.83189-0.024292 1.5875-0.24575 1.6095-1.5792 0.03614-1.9566-1.1178-3.7797-2.6855-4.3419l-2.6235-0.9408 0.0606 0.3274c0.30928 0.11091 0.82342 0.41414 0.83905 1.2517l0.214 8.6343c0.03355 1.1496-0.2645 0.99183-0.58444 0.87711l0.0606 0.3273 2.4529 0.8796-0.0606-0.3273c-0.30928-0.11091-0.82342-0.41415-0.83905-1.2517l-0.0966-4.4493m-0.1101-4.522c-0.003899-0.29005 0.046631-0.33984 0.21167-0.41649 0.3918 0.072578 0.95423 0.20635 1.3611 0.84467 0.44899 0.70434 0.63022 1.4145 0.66604 2.3612 0.067711 1.9259-0.73106 1.8602-2.1405 1.185l-0.0984-3.9745m8.6954 12.049c-0.14541 0.2365-0.39633 0.3333-0.62537 0.38699-0.22903 0.053719-0.70163-0.13274-1.1344-0.69542-0.3693-0.48899-0.65379-1.5419-0.69296-2.5067 0.51418-0.019371 1.117 0.010048 1.6627-0.2697 0.44515-0.23089 0.72531-0.70773 0.76751-1.6095 0.043343-1.0032-0.56449-1.8664-1.2257-2.1035-1.1518-0.41304-2.3532 1.3804-2.0908 4.0893 0.13456 1.3726 0.71316 2.6159 1.2037 3.1144 0.67408 0.68319 1.1136 0.63705 1.3387 0.61588 0.5894-0.04332 1.125-1.0228 1.1727-1.1415 0.055031-0.13308-0.056091-0.41064-0.13972-0.27084l-0.2364 0.3907m-2.4341-3.199c-0.017288-1.008 0.010849-1.6092 0.33147-2.5129 0.12914-0.37817 0.36043-0.63482 0.55747-0.7 0.29022-0.099678 0.58713 0.15961 0.72457 0.95598 0.17783 1.0146-0.090645 2.3616-1.6135 2.2569m7.0255 5.0153c-0.18247 0.35906-1.0565 0.96249-1.827-0.67216-0.23008-0.49001-0.65099-1.4729-0.65529-3.0026-0.020592-1.6714 0.17204-2.621 0.73228-2.9295 0.33402-0.18584 0.6259-0.11514 0.82404 0.04081 0.10608 0.088982 0.33225 0.28896 0.27889 0.59242-0.038185 0.22401-0.02253 0.739 0.13797 1.0682 0.16052 0.32922 0.34068 0.49571 0.46922 0.49086 0.19984 0.003761 0.27453-0.29207 0.26949-0.48065-0.013435-0.39534-0.28504-1.0021-0.5376-1.3983-0.26321-0.40002-0.40186-0.44974-0.7392-0.60467-1.3707-0.62737-2.4054 0.61463-2.2272 3.5141 0.12719 2.0322 0.84441 3.6477 2.091 4.1966 0.21666 0.094673 0.5439 0.19504 0.96101-0.079865 0.26609-0.17625 0.59283-0.67033 0.63609-1.0284-0.001656-0.1704-0.081345-0.38575-0.16163-0.22776l-0.2521 0.5208m2.636 4.3242c-0.29635-0.31002-0.64436-0.46876-0.68818-0.059998-0.019669 0.16273 0.008362 0.52935 0.20085 0.87003 0.17847 0.3187 0.57923 0.54731 0.8268 0.43234 0.3194-0.15713 0.63719-0.80723 0.71411-0.9834 0.45422-1.0426 0.84287-2.9238 1.1783-5.4693 0.070229-0.53513 0.14165-1.8169 0.10634-2.1692-0.051025-0.54465-0.21876-1.5047-0.69641-1.8798-0.44958-0.33101-0.51081 0.037552-0.51028 0.30941 0.003326 0.34078 0.39059 0.81924 0.65438 1.1685 0.18634 0.2536 0.20032 0.59819 0.23342 0.83079 0.13457 1.3726-0.3484 3.3898-0.45171 3.6923-0.62788-2.2627-1.2137-4.1367-2.1116-6.5132-0.097069-0.25554-0.10325-0.34265-0.3564-0.36551l-1.277-0.0674 0.0611 0.2766c0.27786 0.048714 0.67699-0.21567 1.2976 1.4162 0.56174 1.4749 1.5 4.0696 2.093 6.897-0.15277 0.89606-0.41443 1.6342-0.80517 2.1054l-0.4692-0.4909m6.8207-0.933c-0.18246 0.35904-1.0565 0.96249-1.827-0.67215-0.23009-0.49003-0.65099-1.4729-0.6553-3.0026-0.020584-1.6714 0.17205-2.621 0.73229-2.9295 0.33402-0.18585 0.62589-0.11515 0.82403 0.040802 0.10607 0.088974 0.33226 0.28896 0.2789 0.59242-0.038185 0.22401-0.02253 0.73901 0.13797 1.0682 0.16052 0.32922 0.34068 0.4957 0.46922 0.49086 0.19983 0.003746 0.27452-0.29208 0.26949-0.48067-0.013435-0.39532-0.28504-1.0021-0.5376-1.3983-0.26321-0.40001-0.40186-0.44973-0.7392-0.60467-1.3707-0.62737-2.4054 0.61464-2.2272 3.5141 0.1272 2.0322 0.8444 3.6477 2.091 4.1967 0.21666 0.094658 0.5439 0.19503 0.96101-0.079872 0.26609-0.17626 0.59283-0.67033 0.63609-1.0284-0.001656-0.1704-0.081352-0.38575-0.16164-0.22776l-0.2521 0.5208m2.4197-8.8954c-0.011192-0.27569-0.022392-0.55137-0.097572-0.85001l-1.4622-0.0999 0.0606 0.3274c0.56525 0.2027 0.70782 0.21987 0.73354 1.112l0.2617 8.8382c0.041954 1.3564 0.62511 1.8712 0.95462 1.7686 0.47266-0.13615 0.6153-0.76416 0.75682-1.2907 0.089279-0.32455 0.024765-0.61935-0.10212-0.44412-0.10162 0.15033-0.15335 0.94678-0.42896 1.0177-0.4474 0.11124-0.39397-0.83742-0.41357-1.3199l-0.2628-9.0593m5.4035 11.531c-0.14542 0.2365-0.39632 0.3333-0.62537 0.38699-0.22903 0.053696-0.70164-0.13275-1.1344-0.69544-0.3693-0.48898-0.65378-1.5418-0.69296-2.5067 0.51416-0.019386 1.117 0.01004 1.6627-0.26971 0.44515-0.2309 0.7253-0.70774 0.76751-1.6095 0.043335-1.0032-0.5645-1.8664-1.2257-2.1035-1.1518-0.41304-2.3532 1.3804-2.0908 4.0893 0.13458 1.3726 0.71316 2.6159 1.2037 3.1144 0.67408 0.6832 1.1136 0.63706 1.3387 0.61591 0.58939-0.043335 1.125-1.0228 1.1728-1.1416 0.055016-0.13308-0.056091-0.41062-0.13974-0.27083l-0.2364 0.3907m-2.4341-3.199c-0.017288-1.008 0.010841-1.6092 0.33147-2.5129 0.12914-0.37818 0.36043-0.63482 0.55746-0.7 0.29022-0.09967 0.58714 0.15961 0.72458 0.95598 0.17782 1.0146-0.090652 2.3616-1.6135 2.257m4.8074 2.2842c0.076042-2.3328 0.17493-3.1973 0.28515-5.0764 0.10909-1.7777-0.032845-2.4908-0.17145-2.8631-0.15937-0.43071-0.34347-0.56464-0.46135-0.55597-0.22509 0.021156-0.27058 0.25953-0.29756 0.43663-0.042114 0.25657-0.01136 1.3373 0.066544 2.35l0.4052 5.5787 0.1734 0.1301m-0.4701 2.1406c0.094238 0.50922 0.40294 0.99347 0.70154 1.1006 0.29862 0.10706 0.45919-0.20887 0.36494-0.7181-0.094254-0.50921-0.40292-0.99346-0.70154-1.1005-0.2986-0.10709-0.45919 0.20886-0.36494 0.71808m3.2113-5.6741l0.2675-2.8585c0.048317-0.49205-0.32772-1.0174-0.47646-1.1217-0.24808-0.15688-0.43896-0.004593-0.39523 0.55442l0.2522 3.2995 0.3519 0.1262m1.8983 0.6807l0.2675-2.8585c0.048332-0.49205-0.3277-1.0174-0.47644-1.1217-0.24808-0.15688-0.43895-0.004601-0.39523 0.55442l0.2522 3.2995 0.3519 0.1262" fill="#fff" stroke="#fff" stroke-width=".755"/>
 <path d="m117.81 56.167l66.097-21.953-4.3804 35.105c-5.7333 37.183-56.51 6.673-64.279 58.87l2.5629-72.022z" fill="url(#q)" fill-rule="evenodd" opacity=".261" stroke-width=".312"/>
 <rect x="110.96" y="55.032" width="5.5047" height="74.679" rx="2.5192" ry="1.4394" fill="url(#t)" opacity=".346" stroke-linecap="round" stroke-linejoin="round" stroke-opacity=".594" stroke-width="1.25"/>
 <g fill-rule="evenodd" stroke-width=".312">
  <path d="m185.7 31.334l-66.918 22.037c-3.3083 1.0179-7.249 1.1015-10.001-0.14907l0.2594 22.328c1.6541-0.25448 3.6208-0.08358 6.4999-0.80336 2.8791-0.71979 66.58-23.033 66.58-23.033l3.5797-20.379z" fill="url(#r)" opacity=".408"/>
  <path d="m12.953 17.554l7.1255-1.3778 94.009 21.184 67.947-19.192 5.8531 0.4036-73.8 22.351-101.13-23.369z" fill="#fff" opacity=".204"/>
 </g>
 <g stroke-linejoin="round" stroke-opacity=".594" stroke-width="1.25">
  <rect transform="matrix(.97133 .23774 0 1 0 0)" x="10.374" y="15.192" width="105.97" height="10.437" rx="2.3868" ry="2.0711" fill="#000409" fill-opacity=".467" opacity=".3" stroke-linecap="round"/>
  <path d="m76.938 4.771l-54.236 11.969 54.236 11.581v-23.551z" fill="url(#m)" fill-rule="evenodd" opacity=".4"/>
 </g>
</svg>
