<?xml version="1.0" encoding="UTF-8"?>
<svg viewBox="0 0 395.83 349" xmlns="http://www.w3.org/2000/svg">
 <path d="m378.33 179.5c0 96.098-77.679 174-173.5 174s-173.5-77.902-173.5-174 77.679-174 173.5-174c95.822 0 173.5 77.902 173.5 174z" fill="#fff" stroke="#000" stroke-width="9"/>
 <path d="m269.33 57.5c0 13.807-11.864 25-26.5 25s-26.5-11.193-26.5-25 11.864-25 26.5-25 26.5 11.193 26.5 25z"/>
 <path d="m96.833 177c1.055 6.355 19.833 128.92 19.833 128.92h68.334s13.605-125.02 13.833-128.92c6.224-0.62199 7.667-6-1-6-12.164 0-89.205-0.059006-98 0s-7.833 5.487-3 6z"/>
 <path d="m109.33 145.5c17.292-5.325 24.179-23.532 27-31 14.513 6.596 40.333 12.265 59 8 3.683 19.419-28.043 19.31-23 37-8.422-9.295-51.596 12.292-63-14z"/>
 <path d="m134.33 86.5l139-1c-0.59998 3.421 33.633 57.497 29 67-4.089 0.418-67 5-67 5 6.109-9.379-13-43-13-43l-88-28z"/>
 <path d="m301.33 160.5l-66-3s-23.565 143.36-24 145 1.855 2.536 3 1 51-82 51-82 19.754 80.701 20 82 3.721 1.209 4 0 12-143 12-143z"/>
 <path d="m119.86 301.94h61.499s18.9-125.48 11.101-125.48c-1.825 0-86.442-0.012009-88.2 0-7.915 0.052979 15.6 125.48 15.6 125.48z" fill="#fff" stroke="#000"/>
 <path d="m-17 110.5" fill="#1789e5"/>
 <path d="m152.49 302.5h-5.315v-127.33h5.315v127.33z"/>
 <path d="m172.59 302.87l-5.049-0.409 8.372-127.34 5.049 0.409-8.372 127.34z"/>
 <path d="m127.91 303.2l5.049-0.409-8.372-127.34-5.048 0.409 8.371 127.34z"/>
 <path d="m196.17 195.69v5.625h-94.334v-5.625h94.334z"/>
 <path d="m192.83 223.02v5.625h-86.667v-5.625h86.667z"/>
 <path d="m189.83 249.02v5.625h-80.333v-5.625h80.333z"/>
 <path d="m186.5 275.02v5.625h-73v-5.625h73z"/>
</svg>
